<svg width="275" height="252" viewBox="0 0 275 252" fill="none" xmlns="http://www.w3.org/2000/svg">
<path d="M172 181.677V19.3227C172 8.64684 163.634 0 153.317 0H139.69C129.366 0 121 8.64684 121 19.3227V181.677C121 192.353 129.366 201 139.69 201H153.317C163.634 201 172 192.353 172 181.677Z" fill="#094F94"/>
<path d="M221 182H69V158H221V182Z" fill="#094F94"/>
<mask id="mask0_1747_545" style="mask-type:luminance" maskUnits="userSpaceOnUse" x="83" y="130" width="126" height="122">
<path d="M83.8516 130.578H208.365V251.995H83.8516V130.578Z" fill="white"/>
</mask>
<g mask="url(#mask0_1747_545)">
<path d="M207.641 130.832H84.5441C84.5441 130.832 79.6671 199.304 102.582 227.088C123.782 252.817 143.314 252.171 146.093 251.938C148.88 252.171 168.403 252.817 189.611 227.088C212.518 199.304 207.641 130.832 207.641 130.832Z" fill="#E0ECF8"/>
</g>
<mask id="mask1_1747_545" style="mask-type:luminance" maskUnits="userSpaceOnUse" x="88" y="193" width="116" height="59">
<path d="M88.4141 193.533H203.794V251.996H88.4141V193.533Z" fill="white"/>
</mask>
<g mask="url(#mask1_1747_545)">
<path d="M190.926 220.139C169.083 245.861 148.97 245.223 146.099 244.989C143.235 245.223 123.122 245.861 101.279 220.139C95.4525 213.29 91.3717 203.951 88.5312 193.787C91.2798 206.597 95.6669 218.699 102.588 227.089C123.788 252.818 143.319 252.172 146.099 251.939C148.885 252.172 168.409 252.818 189.617 227.089C196.538 218.699 200.917 206.597 203.666 193.787C200.826 203.951 196.745 213.29 190.926 220.139Z" fill="#C7DAE9"/>
</g>
<path d="M84 136.186C92.8434 147.709 105.846 155 120.349 155H171.329C185.467 155 198.179 148.083 207 137.068C206.878 133.24 206.718 131 206.718 131H84.2514C84.2514 131 84.1219 132.898 84 136.186Z" fill="#C7DAE9"/>
<path d="M99.7003 224C104.736 216.593 108.01 205.714 108.257 193.525H184.928C185.183 205.635 188.411 216.46 193.392 223.867C193.964 222.997 194.512 222.095 195.037 221.17C190.635 214.014 187.855 203.597 187.855 192.012C187.855 170.654 197.3 153.261 208.954 153.01C208.977 151.983 208.992 150.98 209 150.008C195.987 150.196 185.384 168.161 184.928 190.523H108.257C107.801 168.059 97.1055 150.016 84 150C84.0077 150.972 84.0309 151.975 84.0541 153.002C95.7926 153.073 105.33 170.544 105.33 192.012C105.33 203.684 102.511 214.163 98.0554 221.319C98.5805 222.236 99.1365 223.138 99.7003 224Z" fill="#C7DAE9"/>
<path d="M134 191.5C134 184.6 139.6 179 146.5 179C153.409 179 159 184.6 159 191.5C159 198.408 153.409 204 146.5 204C139.6 204 134 198.408 134 191.5Z" fill="#C7DAE9"/>
<path d="M138 191C138 186.582 141.58 183 145.996 183C150.42 183 154 186.582 154 191C154 195.418 150.42 199 145.996 199C141.58 199 138 195.418 138 191Z" fill="#094F94"/>
<path d="M76.9986 181.684L76.6312 160.817C76.5262 155.033 73.6249 149.689 68.8868 146.581L28.6654 120.138C23.6499 116.845 17.1725 121.156 18.0871 127.21C20.5236 143.358 30.1423 169.801 65.2732 189.018C70.6486 191.956 77.111 187.946 76.9986 181.684Z" fill="#E0ECF8"/>
<path d="M76.6312 160.787C76.5637 157.121 75.3717 153.639 73.3025 150.775L73.5724 165.882C73.6773 172.15 67.2148 176.164 61.8469 173.223C35.4196 158.757 23.4243 140.192 18.0713 125C17.9739 125.679 17.9739 126.405 18.0863 127.146C20.5229 143.31 30.1417 169.78 65.2731 189.017C70.6485 191.958 77.111 187.944 76.9986 181.676L76.6312 160.787Z" fill="#C7DAE9"/>
<path d="M68.3309 61L64 4.24979L65.4388 4L77 61H68.3309Z" fill="#C7DAE9"/>
<path d="M61 4C61 1.79541 62.5613 0 64.4963 0C66.4314 0 68 1.79541 68 4C68 6.20459 66.4314 8 64.4963 8C62.5613 8 61 6.20459 61 4Z" fill="#C7DAE9"/>
<path d="M224.333 61L229 4.24979L227.45 4L215 61H224.333Z" fill="#C7DAE9"/>
<path d="M232 4C232 1.79541 230.433 0 228.5 0C226.567 0 225 1.79541 225 4C225 6.20459 226.567 8 228.5 8C230.433 8 232 6.20459 232 4Z" fill="#C7DAE9"/>
<path d="M225.97 57H66.0379C55.522 57 47 65.5256 47 76.0518V89.9405C47 100.467 55.522 109 66.0379 109H225.97C236.478 109 245 100.467 245 89.9405V76.0518C245 65.5256 236.478 57 225.97 57Z" fill="#094F94"/>
<path d="M175.01 19H118.99C89.7238 19 66 43.147 66 72.9264V94.0736C66 123.853 89.7238 148 118.99 148H175.01C204.276 148 228 123.853 228 94.0736V72.9264C228 43.147 204.276 19 175.01 19Z" fill="#E0ECF8"/>
<path d="M207.989 66.7729L207.518 64.4781C206.019 57.0473 201.46 50.5765 195.007 46.7206C188.555 42.8725 180.751 41.9593 173.603 44.2151L172.792 44.4726C155.344 49.9911 136.907 49.9521 119.483 44.3556C112.32 42.0607 104.5 42.9506 98.0166 46.7987C91.5335 50.6468 86.9591 57.1331 85.4523 64.5796L85.0118 66.7729C82.0214 81.6033 85.7305 96.8318 95.1962 108.556C104.654 120.279 118.663 127 133.623 127H159.37C174.33 127 188.339 120.279 197.805 108.556C207.263 96.8318 210.979 81.6033 207.989 66.7729Z" fill="#C7DAE9"/>
<path d="M202.092 68.7793L201.632 66.4847C199.099 53.8095 186.396 46.1451 174.305 50.0007L173.501 50.2583C155.349 56.0495 135.888 56.0105 117.766 50.1334C105.652 46.2153 92.8875 53.872 90.3468 66.5861L89.9106 68.7793C84.3088 96.7911 105.262 123 133.248 123H158.747C186.733 123 207.686 96.7911 202.092 68.7793Z" fill="#2E3033"/>
<path d="M118 75.4961C118 71.9129 120.91 69 124.5 69C128.09 69 131 71.9129 131 75.4961C131 79.0871 128.09 82 124.5 82C120.91 82 118 79.0871 118 75.4961Z" fill="#FFDE1A"/>
<path d="M161 75.4961C161 71.9129 164.136 69 168.004 69C171.864 69 175 71.9129 175 75.4961C175 79.0871 171.864 82 168.004 82C164.136 82 161 79.0871 161 75.4961Z" fill="#FFDE1A"/>
<path d="M129 92C129 100.285 136.833 107 146.496 107C156.16 107 164 100.285 164 92H129Z" fill="#FFDE1A"/>
<path d="M80 49C80 49 95.9451 23.5759 107.206 27.3899C118.459 31.2117 92.9376 40.4107 80 49Z" fill="white"/>
<path d="M122 26.4958C122 28.4306 120.437 30 118.5 30C116.571 30 115 28.4306 115 26.4958C115 24.5694 116.571 23 118.5 23C120.437 23 122 24.5694 122 26.4958Z" fill="white"/>
<path d="M215.001 181.684L215.382 160.817C215.482 155.033 218.439 149.689 223.25 146.581L264.155 120.138C269.248 116.845 275.842 121.156 274.912 127.21C272.434 143.358 262.646 169.801 226.924 189.018C221.466 191.956 214.895 187.946 215.001 181.684Z" fill="#E0ECF8"/>
<path d="M215.382 160.787C215.443 157.121 216.663 153.639 218.76 150.775L218.493 165.882C218.378 172.15 224.95 176.164 230.408 173.223C257.287 158.757 269.477 140.192 274.927 125C275.027 125.679 275.027 126.405 274.912 127.146C272.435 143.31 262.646 169.78 226.924 189.017C221.466 191.958 214.895 187.944 215.001 181.676L215.382 160.787Z" fill="#C7DAE9"/>
<path d="M243 143C243 143 274.001 129.857 269.566 124.735C265.131 119.605 243 143 243 143Z" fill="white"/>
<path d="M251.805 33.6747L254.004 20L256.195 33.6747C256.572 36.0222 258.371 37.8631 260.664 38.249L274 40.5L260.664 42.751C258.371 43.1369 256.572 44.9778 256.195 47.3333L254.004 61L251.805 47.3333C251.428 44.9778 249.629 43.1369 247.344 42.751L234 40.5L247.344 38.249C249.629 37.8631 251.428 36.0222 251.805 33.6747Z" fill="#FFDE1A"/>
<path d="M30.9126 35.6716L32.5037 26L34.0947 35.6716C34.3673 37.3264 35.6711 38.6282 37.3284 38.9077L47 40.4963L37.3284 42.0923C35.6711 42.3644 34.3673 43.6662 34.0947 45.3284L32.5037 55L30.9126 45.3284C30.6327 43.6662 29.3289 42.3644 27.6716 42.0923L18 40.4963L27.6716 38.9077C29.3289 38.6282 30.6327 37.3264 30.9126 35.6716Z" fill="#FFDE1A"/>
<mask id="mask2_1747_545" style="mask-type:luminance" maskUnits="userSpaceOnUse" x="0" y="66" width="25" height="27">
<path d="M0 66.8184H24.5V92.719H0V66.8184Z" fill="white"/>
</mask>
<g mask="url(#mask2_1747_545)">
<path d="M10.4434 76.489L11.7297 68.5352L13.0159 76.489C13.238 77.851 14.2869 78.925 15.6267 79.1507L23.4438 80.4582L15.6267 81.7656C14.2869 81.9913 13.238 83.0653 13.0159 84.4273L11.7297 92.3812L10.4434 84.4273C10.2214 83.0653 9.1725 81.9913 7.825 81.7656L0.015625 80.4582L7.825 79.1507C9.1725 78.925 10.2214 77.851 10.4434 76.489Z" fill="#FFDE1A"/>
</g>
</svg>
