<svg width="1035" height="411" viewBox="0 0 1035 411" fill="none" xmlns="http://www.w3.org/2000/svg">
<mask id="mask0_1694_670" style="mask-type:luminance" maskUnits="userSpaceOnUse" x="2" y="215" width="310" height="196">
<path d="M2.84766 215.854H311.999V410.25H2.84766V215.854Z" fill="white"/>
</mask>
<g mask="url(#mask0_1694_670)">
<path d="M266.278 219.974C237.898 225.547 163.752 246.99 122.033 265.823C119.174 267.11 196.32 277.089 192.653 277.557C178.049 279.391 144.393 287.099 125.851 289.557C77.3614 295.985 35.3822 307.412 17.5905 319.578C6.78325 326.958 -3.40425 338.839 9.30408 335.906C33.6739 330.287 85.4708 323.995 108.716 331.771C120.007 335.542 90.9395 346.151 55.9916 372.823C34.2051 389.453 28.8718 405.13 32.6374 408.969C37.4239 413.839 47.2155 403.511 50.851 401.12C101.617 367.771 164.325 370.557 223.075 350.62C251.971 340.823 289.179 323.125 304.997 297.745C313.736 283.719 312.83 263.068 308.934 248.031C299.96 213.458 307.731 211.844 266.278 219.974Z" fill="#ECDFD6"/>
</g>
<mask id="mask1_1694_670" style="mask-type:luminance" maskUnits="userSpaceOnUse" x="722" y="215" width="310" height="196">
<path d="M722.668 215.854H1031.6V410.25H722.668V215.854Z" fill="white"/>
</mask>
<g mask="url(#mask1_1694_670)">
<path d="M768.164 219.974C796.545 225.547 870.696 246.99 912.414 265.823C915.268 267.11 838.128 277.089 841.789 277.557C856.399 279.391 890.055 287.099 908.597 289.557C957.086 295.985 999.065 307.412 1016.86 319.578C1027.66 326.958 1037.85 338.839 1025.13 335.906C1000.77 330.287 948.977 323.995 925.727 331.771C914.44 335.542 943.503 346.151 978.456 372.823C1000.24 389.453 1005.58 405.13 1001.8 408.969C997.024 413.839 987.232 403.511 983.591 401.12C932.831 367.771 870.123 370.557 811.367 350.62C782.472 340.823 745.268 323.125 729.451 297.745C720.711 283.719 721.612 263.068 725.513 248.031C734.487 213.458 726.716 211.844 768.164 219.974Z" fill="#ECDFD6"/>
</g>
<path d="M726.766 284.557C725.599 284.557 724.635 283.63 724.599 282.458C724.557 281.26 725.5 280.26 726.698 280.219C800.448 277.74 873.927 273.833 911.776 262.068C912.922 261.714 914.13 262.349 914.484 263.495C914.839 264.646 914.203 265.854 913.057 266.208C874.719 278.12 800.901 282.068 726.839 284.557C726.818 284.557 726.792 284.557 726.766 284.557Z" fill="#F1EDE4"/>
<mask id="mask2_1694_670" style="mask-type:luminance" maskUnits="userSpaceOnUse" x="830" y="274" width="205" height="65">
<path d="M830.668 274.667H1034.07V338.667H830.668V274.667Z" fill="white"/>
</mask>
<g mask="url(#mask2_1694_670)">
<path d="M1031.5 338.062C1030.76 338.062 1030.04 337.682 1029.64 336.995C1020.78 322.088 1003.65 314.344 989.715 309.276C969.643 301.958 855.049 281.417 833.116 279.161C831.929 279.042 831.059 277.974 831.179 276.786C831.299 275.594 832.372 274.724 833.559 274.849C855.606 277.109 970.939 297.818 991.2 305.198C1005.81 310.516 1023.81 318.687 1033.36 334.781C1033.97 335.807 1033.63 337.141 1032.6 337.755C1032.25 337.958 1031.87 338.062 1031.5 338.062Z" fill="#F1EDE4"/>
</g>
<mask id="mask3_1694_670" style="mask-type:luminance" maskUnits="userSpaceOnUse" x="57" y="0" width="921" height="267">
<path d="M57.332 0.620117H977.332V266.667H57.332V0.620117Z" fill="white"/>
</mask>
<g mask="url(#mask3_1694_670)">
<path d="M975.4 151.214C969.405 175.495 931.228 266.026 910.973 266.557C900.614 266.833 881.176 252.094 782.624 229.25C644.015 197.12 613.942 193.198 506.78 193.641C410.484 194.047 354.874 202.443 251.556 226.391C152.999 249.234 133.838 266.833 123.473 266.557C103.208 266.026 65.0409 175.495 59.0461 151.214C53.8065 130.016 66.9627 114.964 86.8586 101.547C138.666 66.6198 317.812 0.859375 512.51 0.859375C708.791 0.859375 888.588 61.776 947.593 101.547C967.484 114.964 980.635 130.016 975.4 151.214Z" fill="#F1EDE4"/>
</g>
<path d="M971.316 142.468C970.556 142.468 969.832 142.073 969.426 141.37C965.16 133.896 961.332 130.198 953.072 125.547C952.03 124.953 951.66 123.63 952.249 122.588C952.827 121.547 954.155 121.177 955.191 121.765C964.15 126.802 968.525 131.041 973.197 139.224C973.785 140.255 973.431 141.588 972.389 142.177C972.051 142.375 971.681 142.468 971.316 142.468Z" fill="#ECDED7"/>
<path d="M967.226 158.563C966.47 158.563 965.736 158.167 965.33 157.459C962.054 151.604 956.038 145.547 951.314 143.36C950.236 142.849 949.757 141.563 950.257 140.474C950.767 139.391 952.049 138.917 953.137 139.417C958.668 141.985 965.387 148.677 969.116 155.334C969.7 156.38 969.325 157.698 968.283 158.287C967.944 158.474 967.585 158.563 967.226 158.563Z" fill="#ECDED7"/>
<path d="M953.032 200.026C952.381 200.026 951.735 199.74 951.308 199.183C948.266 195.183 943.995 192.016 939.282 190.271C938.162 189.86 937.589 188.61 938 187.49C938.417 186.365 939.662 185.792 940.782 186.214C946.256 188.24 951.219 191.907 954.75 196.547C955.48 197.5 955.303 198.86 954.349 199.584C953.954 199.881 953.495 200.026 953.032 200.026Z" fill="#ECDED7"/>
<path d="M942.41 217.234C941.67 217.234 940.936 216.849 940.54 216.156C938.957 213.447 935.925 210.692 931.743 208.192C930.717 207.578 930.389 206.244 931.009 205.213C931.623 204.187 932.957 203.854 933.977 204.468C937.321 206.479 941.821 209.76 944.285 213.974C944.878 215.005 944.535 216.333 943.498 216.937C943.154 217.14 942.785 217.234 942.41 217.234Z" fill="#ECDED7"/>
<path d="M932.884 233.12C932.181 233.12 931.493 232.781 931.076 232.151C928.983 228.995 926.118 226.37 922.806 224.541C921.753 223.968 921.373 222.646 921.946 221.593C922.519 220.547 923.842 220.166 924.894 220.739C928.821 222.896 932.212 226.015 934.691 229.75C935.352 230.745 935.076 232.093 934.082 232.755C933.712 233.005 933.295 233.12 932.884 233.12Z" fill="#ECDED7"/>
<path d="M924.973 246.985C924.291 246.985 923.609 246.662 923.182 246.047C919.932 241.339 915.499 237.521 910.359 235.011C909.281 234.485 908.838 233.182 909.359 232.11C909.895 231.037 911.182 230.594 912.265 231.115C918.067 233.953 923.077 238.261 926.749 243.583C927.437 244.568 927.187 245.917 926.202 246.594C925.827 246.865 925.395 246.985 924.973 246.985Z" fill="#ECDED7"/>
<path d="M916.022 258.984C915.34 258.984 914.673 258.667 914.246 258.063C911.386 254.016 907.621 250.552 903.35 248.042C902.319 247.438 901.98 246.104 902.584 245.068C903.189 244.037 904.511 243.698 905.548 244.302C910.345 247.12 914.574 251.016 917.787 255.557C918.48 256.547 918.246 257.896 917.272 258.589C916.892 258.854 916.454 258.984 916.022 258.984Z" fill="#ECDED7"/>
<path d="M962.925 171.901C962.16 171.901 961.405 171.49 961.019 170.766C959.738 168.406 957.67 166.531 955.201 165.484C954.097 165.016 953.582 163.745 954.045 162.641C954.514 161.536 955.79 161.026 956.889 161.484C960.259 162.917 963.076 165.474 964.826 168.698C965.394 169.755 965.004 171.073 963.957 171.635C963.623 171.813 963.269 171.901 962.925 171.901Z" fill="#ECDED7"/>
<path d="M958.228 185.849C957.614 185.849 957.009 185.599 956.582 185.099C953.233 181.198 950.536 179.235 946.942 178.115C945.801 177.756 945.166 176.537 945.52 175.401C945.884 174.25 947.093 173.615 948.239 173.969C952.629 175.344 955.994 177.75 959.869 182.271C960.65 183.183 960.546 184.547 959.635 185.334C959.228 185.677 958.728 185.849 958.228 185.849Z" fill="#ECDED7"/>
<path d="M205.462 119.959C212.655 108.917 219.415 94.3181 214.113 81.1462C212.613 77.4275 209.519 74.1045 203.978 76.3702C198.061 78.792 197.759 84.0212 198.53 89.4483C198.848 91.6045 199.176 93.9066 199.821 95.9014C201.67 103.927 203.551 111.948 205.462 119.959ZM245.342 165.485C248.514 179.396 248.754 191.896 234.285 198.073C227.639 200.917 218.509 201.271 214.837 193.948C214.556 193.391 214.29 192.787 214.176 192.125C209.191 175.959 204.316 159.761 199.556 143.526C189.124 154.381 177.973 163.511 164.962 170.594C145.733 181.084 114.79 185.995 100.967 163.672C96.6079 156.641 95.1131 148.073 97.1548 140.016C97.7694 137.578 99.0194 134.146 100.676 131.026C102.4 127.766 104.332 124.537 107.894 120.943C108.342 120.5 108.79 120.063 109.504 119.667C110.202 119.271 110.993 119.011 111.691 118.995C111.431 118.953 116.597 120.698 117.78 122.797C118.259 123.641 116.629 125.657 114.467 128.339C107.894 136.464 106.176 148.495 111.603 157.49C122.009 174.74 147.467 169.198 162.092 161.558C175.67 154.469 186.478 143.485 196.29 131.922C192.988 119.386 189.608 106.865 186.613 94.2556C183.53 81.2452 190.066 72.3806 201.931 67.292C210.15 63.7712 221.061 66.4118 224.556 75.3441C232.561 95.7712 221.181 116.823 208.806 132.724C211.618 143.558 214.514 154.381 217.4 165.193C218.832 170.552 220.478 175.782 221.946 180.98C223.337 185.907 223.4 186.334 223.53 186.625C225.186 190.297 228.556 191.323 231.946 189.782C239.598 186.287 236.207 175.844 234.78 169.464C233.212 162.48 231.858 155.448 230.389 148.438C230.186 147.474 230.608 146.605 230.879 146.313L232.446 145.328L234.801 144.365C237.327 143.349 239.967 142.131 240.571 143.625C242.129 150.917 243.681 158.214 245.342 165.485Z" fill="#FFD84A"/>
<path d="M262.861 108.208C256.861 110.291 255.481 114.385 256.189 118.77C256.611 121.354 266.044 167.052 266.528 169.213C267.445 173.333 270.82 173.791 274.695 172.395C279.21 170.755 281.32 166.442 280.429 161.291C277.913 146.75 272.627 114.239 272.247 111.984C271.491 107.479 266.747 106.859 262.861 108.208ZM283.101 108.255C284.658 119.89 286.976 131.401 288.804 142.994C290.226 152.036 290.382 155.536 290.773 157.781C292.637 168.182 286.419 177.843 276.611 181.125C269.663 183.442 259.226 183.974 257.028 174.901C255.231 167.437 253.32 159.958 251.637 152.448C249.564 143.125 247.533 133.786 245.476 124.453C242.747 112.02 249.491 102.88 260.945 98.8173C269.486 95.7704 281.575 96.9111 283.101 108.255Z" fill="#FFD84A"/>
<path d="M295.557 102.37C294.01 92.6878 304.723 85.3544 312.682 83.068C318.202 81.4951 324.739 81.7399 329.161 85.943C330.145 86.8753 330.968 88.1149 331.557 89.3284C332.369 91.0003 333.38 93.0419 334.015 99.0107C335.952 117.026 337.583 135.677 339.421 153.162C339.801 156.797 340.281 160.427 338.973 160.776C338.14 161.058 335.348 162.005 334.322 162.349C332.723 162.651 331.926 162.802 330.327 163.11C329.838 163.24 329.343 162.844 329.255 162.401C326.01 146.969 325.359 128.526 323.864 111.938C323.374 106.542 323.822 99.3388 321.484 94.7294C320.354 92.5107 318.104 90.7815 313.619 92.0003C309.307 93.1826 306.202 96.2503 306.76 100.438C307.119 103.089 307.234 104.422 307.551 107.084C309.906 126.891 312.171 146.75 315.104 166.495C315.239 166.953 314.729 167.61 314.244 167.761L312.187 168.552C310.895 168.948 310.255 169.141 308.952 169.547C307.906 169.802 307.369 169.933 306.322 170.198C305.838 170.354 305.369 169.99 305.218 169.532C301.046 147.276 299.051 124.13 295.557 102.37Z" fill="#FFD84A"/>
<path d="M374.707 91.2188C374.598 88.6199 374.452 87.3178 374.363 84.7188C374.202 79.6459 369.603 79.7188 365.598 80.5261C359.233 81.8126 357.592 84.1459 357.822 90.0365C357.915 92.6563 359.457 121.104 360.353 133.359C360.796 139.37 361.155 142.984 363.816 143.979C366.061 144.818 371.207 143.349 376.895 142.188C376.874 134.328 376.056 126.458 375.624 118.615C375.113 109.5 375.103 100.344 374.707 91.2188ZM349.483 135.708C348.264 121.896 347.566 108.037 346.525 94.198C345.572 81.5678 353.275 73.4063 365.139 70.9271C374.056 69.0574 385.629 72.1771 385.702 83.2969C385.806 97.7813 386.869 147.745 387.436 157.844C387.848 165.297 388.353 171.469 386.025 177.828C384.306 182.521 376.832 186.25 371.863 187.255C363.41 188.948 354.514 184.76 354.405 174.969C354.259 173.01 354.077 171.271 353.858 169.297C353.671 167.599 353.697 165.854 355.478 165.417L355.962 165.307C355.478 165.417 363.322 163.083 363.525 164.693C363.816 170.412 363.983 170.766 364.165 173.307C364.494 178.188 367.384 178.51 370.879 177.734C377.082 176.354 377.978 172.734 377.921 168.464C377.467 161.844 377.249 158.531 376.832 151.912C374.384 152.573 370.697 153.307 368.619 153.813C362.301 155.359 354.134 154.5 351.759 147.26C350.613 143.771 349.816 139.432 349.483 135.708Z" fill="#FFD84A"/>
<path d="M399.621 78.5264C399.59 75.7712 400.283 73.3649 401.47 71.3962C401.606 71.0472 401.736 70.6983 402.236 70.2972C404.184 67.0681 408.111 64.2972 413.413 62.9899C417.803 61.9066 422.751 62.0837 427.121 62.3753C427.678 62.3076 428.319 62.8806 428.189 63.3858C427.871 66.2764 427.72 67.7191 427.413 70.6201C427.283 71.1201 426.616 71.6826 426.225 71.5733C423.486 71.7087 422.111 71.7816 419.366 71.9535L418.449 72.0628C414.048 72.6462 410.934 74.5524 410.845 78.7972C410.783 81.4795 410.783 82.8181 410.725 85.4951C410.397 102.516 410.017 119.537 410.194 136.568C410.225 139.886 410.257 141.547 410.303 144.87C410.387 145.344 409.798 145.927 409.298 146.006C408.444 146.198 408.012 146.297 407.158 146.506C405.522 146.917 404.861 147.032 401.158 147.339C400.658 147.422 400.241 147 400.152 146.532C398.97 123.875 399.902 101.209 399.621 78.5264Z" fill="#FFD84A"/>
<path d="M457.088 104C455.396 104.156 454.557 104.224 452.864 104.38C443.718 105.214 441.703 109.24 441.599 113.271C441.531 115.693 441.807 118.011 441.187 126.61C440.927 130.188 444.26 132.584 447.989 132.209C451.375 131.86 455.63 129.531 455.896 125.292C456.333 118.203 456.672 111.099 457.088 104ZM471.245 73.2085C470.948 76.9065 470.859 78.7606 470.614 82.4585C470.177 89.1096 469.75 91.0731 469.583 93.1877C469.333 96.2971 467.526 118.365 466.88 126.979C466.192 136.073 456.114 140.703 448.312 141.729C440.192 142.802 430.776 138.011 430.791 129.292C430.802 124.073 430.406 121.724 430.552 116.495C430.63 113.625 430.776 110.339 431.687 107.261C432.375 104.943 433.26 102.698 434.875 101.214C438.953 96.3596 444.448 95.3752 449.432 94.8283C452.916 94.4377 454.672 94.344 458.161 94.0523C458.76 87.7919 459.13 84.6669 459.713 78.4012C460.416 70.7658 459.479 66.9377 452.62 67.1929C443.922 67.5262 443.286 78.2919 443.302 84.5783L443.317 84.7398C443.187 85.2398 442.703 85.7762 442.156 85.8335L440.37 86.1773C437.484 86.4221 436.036 86.5158 433.151 86.8179C432.609 86.8752 432.01 86.4637 432.13 85.9585L432.432 77.8127C432.776 68.8179 438.458 60.4117 447.901 59.0367C449.729 58.5471 451.604 58.3856 453.281 58.2398C462.885 57.3908 472.114 62.1408 471.245 73.2085Z" fill="#FFD84A"/>
<path d="M506.306 129.599C505.858 132.349 505.811 137.182 503.957 137.229L502.447 137.271C499.593 137.343 496.744 137.713 493.869 137.541C482.483 136.88 481.056 124.609 482.369 115.812C483.306 104.573 484.145 93.3226 485.332 82.1091C485.827 77.432 486.973 68.2914 487.113 66.8695C484.233 66.9945 482.801 67.0674 479.915 67.2185C478.629 67.281 478.15 66.8799 478.79 60.6612C479.207 56.4945 487.186 58.2497 488.317 57.1403C488.978 56.4945 488.639 52.1247 489.264 49.2028C489.796 44.5362 490.061 42.2028 490.624 37.5362C490.764 36.406 496.322 36.0466 498.244 35.9945C501.889 35.8851 502.551 36.8591 502.207 39.7549C501.389 46.5622 500.811 49.9476 499.915 56.7393C505.9 56.5778 508.895 56.5258 514.884 56.4685C516.384 56.4633 515.639 58.7237 515.494 60.0153C515.343 61.3643 515.296 62.0414 515.171 63.4008C514.65 66.1455 512.067 66.1664 510.03 66.2028C508.921 66.2185 508.369 66.2237 507.254 66.2497C503.192 66.3226 499.129 66.5987 499.124 66.4372L498.572 66.4528C497.926 80.4997 495.54 94.5466 494.046 108.515C493.577 112.916 493.379 115.12 492.942 119.521C491.608 128.062 499.452 127.547 505.4 127.521C506.593 127.521 506.29 128.958 506.306 129.599Z" fill="#FFD84A"/>
<path d="M547.805 76.859C549.04 70.458 550.316 64.0622 551.509 57.6507C551.748 56.3643 556.227 56.7028 558.665 56.8174C560.722 56.9163 563.571 56.9059 563.29 58.1768C563.206 58.5622 563.154 58.7497 563.066 59.1299C563.04 59.6143 562.41 61.8382 561.884 64.5518C558.248 83.458 553.915 102.224 550.305 121.135C548.498 130.625 542.956 136.057 533.706 137.755C532.191 138.036 530.477 138.062 528.993 138.01C521.071 137.786 512.733 132.677 513.67 123.677C515.436 106.583 518.071 89.1403 520.571 71.9163C521.634 66.7601 522.529 61.1038 523.081 57.0934C523.259 55.807 526.826 55.9788 528.696 55.9945C533.561 56.0361 534.878 55.7497 534.279 59.9268C532.941 66.0413 532.118 72.2393 531.18 78.4163C529.17 91.5622 524.608 121.125 524.3 123.323C523.717 127.5 526.17 129.119 530.253 129.172C535.024 129.224 538.498 125.922 539.451 120.786C542.17 106.14 544.972 91.4997 547.805 76.859Z" fill="#FFD84A"/>
<path d="M596.391 28.5473C596.157 29.4379 592.803 42.0265 591.376 47.6775C587.959 61.1619 578.261 102.985 576.631 110.355C576.173 111.933 575.959 113.594 574.397 120.047C572.87 126.313 574.115 129.204 580.245 129.704C582.495 129.881 583.62 129.98 585.87 130.172C586.381 130.219 586.844 130.745 586.636 131.214C585.902 134.183 585.563 135.688 584.803 138.651C584.563 139.605 584.376 139.75 583.537 139.678C581.318 139.48 580.204 139.355 577.985 139.214C569.756 138.73 561.402 132.657 562.928 123.995C563.943 118.172 565.089 112.053 566.334 106.115C567.584 100.115 583.818 29.9067 584.355 27.5525C584.641 26.2765 588.719 26.5942 591.631 26.8442C593.188 26.9744 596.673 27.4431 596.391 28.5473Z" fill="#FFD84A"/>
<path d="M623.61 108.141C621.923 107.917 621.079 107.802 619.391 107.584C610.24 106.391 607.381 109.881 606.397 113.787C605.808 116.136 605.568 118.454 603.074 126.709C602.032 130.141 604.777 133.214 608.506 133.667C611.902 134.073 616.584 132.73 617.766 128.662C619.751 121.829 621.652 114.985 623.61 108.141ZM644.235 81.214C643.136 84.7504 642.647 86.5421 641.594 90.0942C639.709 96.49 638.86 98.3077 638.23 100.334C637.303 103.313 630.693 124.454 628.167 132.714C625.49 141.454 614.589 143.74 606.73 143.026C598.579 142.292 590.381 135.573 592.308 127.047C593.464 121.959 593.594 119.579 594.881 114.506C595.594 111.73 596.459 108.552 598.016 105.75C599.199 103.646 600.563 101.641 602.469 100.542C607.522 96.7087 613.11 96.9587 618.115 97.5108C621.615 97.8962 623.36 98.1879 626.844 98.6723C628.808 92.6931 629.85 89.7244 631.792 83.7504C634.157 76.4431 634.079 72.5004 627.298 71.2504C618.719 69.6567 615.725 80.0108 614.355 86.1723L614.339 86.3337C614.105 86.7869 613.506 87.2035 612.969 87.141L611.141 87.0837C608.256 86.6879 606.818 86.464 603.928 86.1202C603.386 86.0577 602.897 85.5265 603.12 85.0629L605.204 77.1827C607.522 68.464 614.943 61.516 624.464 62.2608C626.37 62.1827 628.235 62.4379 629.912 62.6567C639.464 63.9327 647.537 70.5681 644.235 81.214Z" fill="#FFD84A"/>
<path d="M666.322 143.953C665.28 146.541 664.171 151.245 662.343 150.885L660.843 150.583C658.015 150.026 655.145 149.76 652.353 148.969C641.353 145.823 642.588 133.562 645.817 125.229C649.202 114.463 652.499 103.677 656.114 92.9946C657.619 88.5363 660.754 79.8696 661.213 78.5154C658.353 78.005 656.926 77.755 654.062 77.2706C652.78 77.0519 652.4 76.5623 654.395 70.6248C655.723 66.6508 663.166 70.1352 664.52 69.2915C665.312 68.8019 665.942 64.4738 667.192 61.7498C668.739 57.3175 669.51 55.0988 671.088 50.6717C671.478 49.5988 677.01 50.479 678.905 50.8488C682.515 51.5519 682.952 52.6456 681.973 55.3956C679.681 61.8592 678.369 65.0206 676.004 71.4581C681.916 72.6196 684.869 73.2342 690.78 74.4998C692.254 74.8227 691.03 76.8592 690.598 78.0936C690.155 79.38 689.963 80.0311 689.541 81.3279C688.431 83.8852 685.879 83.3436 683.879 82.9165L681.145 82.3488C677.124 81.5258 673.072 80.8956 673.109 80.7446L672.556 80.6404C668.843 94.2029 663.416 107.385 658.895 120.682C657.468 124.875 656.78 126.974 655.395 131.172C652.207 139.239 660.082 140.458 665.885 141.734C667.062 141.995 666.442 143.323 666.322 143.953Z" fill="#FFD84A"/>
<path d="M714.689 69.7605C714.575 70.2397 713.913 70.5678 713.361 70.4324C709.637 69.5261 707.783 69.0834 704.064 68.2292C703.507 68.099 703.043 67.5001 703.153 67.0261C703.95 65.224 704.361 63.3334 706.434 59.3542C706.538 58.8751 707.215 58.5365 707.783 58.6667C710.793 59.3699 714.085 60.0782 717.189 60.922C717.731 61.0678 718.2 61.672 718.085 62.1407C717.153 64.4011 716.627 66.5886 714.689 69.7605ZM691.877 96.5209C694.095 91.0001 698.872 79.4063 699.747 77.1615C700.215 75.9376 704.069 76.8282 706.83 77.4845C708.309 77.8282 711.575 78.7918 711.132 79.8386C710.778 80.6876 705.595 92.672 703.418 98.0313C696.502 115.078 682.382 151.625 681.96 152.927C681.314 154.922 678.95 154.719 677.622 154.427C674.642 153.766 672.424 153.526 671.585 152.62C670.809 151.781 671.351 150.599 672.012 148.922C678.83 131.526 684.898 113.859 691.877 96.5209Z" fill="#FFD84A"/>
<path d="M740.823 95.5622C734.693 93.7914 731.198 96.3435 729.255 100.343C728.115 102.698 709.516 145.489 708.662 147.531C707.047 151.432 709.542 153.76 713.526 154.838C718.183 156.114 722.412 153.807 724.646 149.083C730.964 135.75 745.375 106.13 746.37 104.062C748.339 99.9477 744.787 96.6977 740.823 95.5622ZM757.464 107.297C752.031 117.703 747.287 128.453 742.11 138.974C738.058 147.187 736.162 150.125 735.193 152.192C730.709 161.802 719.979 166.057 710.073 163.083C703.063 160.984 694.177 155.411 697.615 146.708C700.438 139.573 703.183 132.349 706.136 125.255C709.797 116.427 713.511 107.62 717.209 98.807C722.136 87.0362 732.948 83.4997 744.667 86.7758C753.396 89.2133 762.781 97.1039 757.464 107.297Z" fill="#FFD84A"/>
<path d="M771.167 109.708C775.521 100.828 788.677 101.151 796.526 103.885C802.005 105.792 807.318 109.776 808.573 115.812C808.859 117.156 808.833 118.646 808.625 119.979C808.333 121.823 807.984 124.073 805.063 129.318C796.24 145.141 786.787 161.318 778.193 176.651C776.412 179.833 774.698 183.078 773.417 182.604C772.552 182.354 769.682 181.495 768.63 181.182C767.13 180.495 766.375 180.156 764.865 179.479C764.38 179.297 764.203 178.687 764.38 178.276C770.599 163.812 780.75 148.349 789.109 133.948C791.823 129.276 796.38 123.641 797.099 118.521C797.448 116.047 796.578 113.328 792.135 111.719C787.87 110.172 783.521 110.88 781.568 114.62C780.323 116.995 779.646 118.146 778.37 120.505C768.865 138.052 759.266 155.573 750.266 173.396C750.12 173.859 749.313 174.099 748.828 173.937L746.667 173.391C745.37 172.958 744.714 172.75 743.417 172.333C742.391 171.927 741.88 171.734 740.859 171.339C740.375 171.177 740.188 170.62 740.333 170.151C749.75 149.557 761.458 129.5 771.167 109.708Z" fill="#FFD84A"/>
<path d="M832.922 194.521C827.12 188.885 820.713 183.692 813.312 180.396C804.458 176.448 790.515 176.401 786.828 187.583C783.906 196.453 789.255 206.224 797.729 209.651C811.76 215.343 826.083 207.213 832.922 194.521ZM920.916 210.26C908.573 230.614 877.109 225.271 860.276 215.88C853.547 212.125 847.745 207.781 841.734 202.666C831.588 218.271 811.349 225.958 793.937 219.067C779.495 213.359 771.401 197.823 776.776 183.521C782.495 168.276 801.104 164.135 815.505 170.64C823.255 174.146 830.38 179.333 836.63 185.224C843 159.76 818.88 136.427 829.13 111.187C835.187 96.2393 850.687 91.1351 865.026 97.3799C873.26 100.963 879.536 110.026 875.265 119.026C872.661 124.526 864.474 134.5 859.385 133.442C858.515 133.255 851.182 128.255 852.036 126.333C852.229 125.901 852.599 125.536 853.083 125.401C856.734 121.916 860.838 118.484 862.948 113.781C864.13 111.14 863.495 107.14 859.208 105.187C850.432 101.172 843.692 109.974 840.562 116.88C835.495 128.078 840.927 140.88 844.114 151.588C848.307 165.677 850.833 173.656 845.927 193.953C847 197.541 857.177 203.651 863.729 207.317C876.51 214.463 900.969 221.271 910.651 204.614C911.541 203.088 912.291 201.458 913.599 197.744C914.573 196.073 919.979 197.984 922.073 199.26C924.812 200.916 924.416 204.468 920.916 210.26Z" fill="#FFD84A"/>
<path d="M203.188 115.682C210.386 104.645 217.141 90.0465 211.839 76.8746C210.339 73.1559 207.25 69.8329 201.704 72.1038C195.797 74.5204 195.49 79.7496 196.266 85.1767C196.573 87.3329 196.902 89.635 197.558 91.635C199.396 99.6559 201.277 107.671 203.188 115.682ZM243.068 161.213C246.24 175.13 246.49 187.625 232.021 193.802C225.365 196.645 216.235 197 212.568 189.682C212.292 189.119 212.027 188.51 211.907 187.859C206.917 171.692 202.042 155.494 197.282 139.255C186.849 150.109 175.698 159.239 162.698 166.323C143.459 176.812 112.521 181.724 98.6932 159.401C94.3338 152.369 92.8494 143.802 94.8807 135.75C95.4953 133.302 96.7557 129.875 98.4015 126.755C100.136 123.494 102.058 120.265 105.62 116.671C106.068 116.224 106.516 115.791 107.23 115.395C107.938 115 108.719 114.75 109.417 114.724C109.157 114.682 114.323 116.427 115.506 118.526C115.985 119.375 114.355 121.385 112.193 124.067C105.62 132.187 103.902 144.224 109.329 153.218C119.735 170.463 145.193 164.927 159.818 157.286C173.396 150.198 184.204 139.213 194.016 127.651C190.724 115.109 187.334 102.593 184.339 89.984C181.256 76.9736 187.792 68.109 199.662 63.0204C207.875 59.4996 218.787 62.1402 222.287 71.0777C230.292 91.4996 218.907 112.552 206.537 128.458C209.355 139.296 212.245 150.109 215.131 160.927C216.558 166.281 218.214 171.505 219.672 176.708C221.063 181.635 221.125 182.062 221.256 182.354C222.912 186.026 226.282 187.052 229.683 185.51C237.323 182.02 233.933 171.573 232.506 165.203C230.938 158.208 229.584 151.171 228.115 144.166C227.912 143.203 228.334 142.333 228.61 142.041L230.172 141.057L232.532 140.093C235.053 139.078 237.704 137.859 238.297 139.354C239.855 146.645 241.407 153.942 243.068 161.213Z" fill="#23293A"/>
<path d="M260.59 103.937C254.585 106.021 253.204 110.115 253.913 114.505C254.34 117.083 263.767 162.776 264.251 164.943C265.173 169.062 268.543 169.531 272.418 168.125C276.934 166.484 279.043 162.172 278.152 157.021C275.637 142.479 270.35 109.969 269.97 107.713C269.215 103.208 264.47 102.594 260.59 103.937ZM280.824 103.995C282.381 115.62 284.699 127.135 286.533 138.724C287.96 147.766 288.105 151.266 288.501 153.51C290.361 163.906 284.142 173.573 274.34 176.854C267.397 179.172 256.949 179.713 254.751 170.625C252.954 163.167 251.043 155.687 249.371 148.177C247.288 138.854 245.256 129.516 243.204 120.182C240.47 107.745 247.215 98.6145 258.668 94.5468C267.22 91.5104 279.298 92.6406 280.824 103.995Z" fill="#23293A"/>
<path d="M293.293 98.0993C291.736 88.417 302.449 81.0836 310.418 78.7972C315.928 77.2243 322.465 77.4743 326.887 81.6722C327.871 82.6045 328.694 83.844 329.288 85.0576C330.095 86.7347 331.105 88.7711 331.751 94.7399C333.678 112.756 335.309 131.407 337.147 148.896C337.527 152.521 338.006 156.157 336.699 156.506C335.866 156.787 333.085 157.729 332.048 158.078C330.449 158.375 329.652 158.532 328.053 158.839C327.569 158.974 327.069 158.573 326.98 158.125C323.736 142.703 323.085 124.25 321.59 107.667C321.105 102.282 321.559 95.0784 319.21 90.4586C318.079 88.2399 315.84 86.5107 311.345 87.7295C307.033 88.9065 303.928 91.9847 304.491 96.167C304.845 98.818 304.96 100.157 305.277 102.813C307.631 122.631 309.897 142.479 312.829 162.219C312.965 162.683 312.465 163.334 311.975 163.49L309.913 164.282C308.626 164.677 307.98 164.87 306.678 165.271C305.631 165.532 305.105 165.662 304.048 165.927C303.564 166.078 303.095 165.719 302.949 165.256C298.777 143.011 296.777 119.86 293.293 98.0993Z" fill="#23293A"/>
<path d="M372.444 86.9479C372.329 84.3437 372.178 83.0468 372.09 80.4479C371.928 75.3749 367.329 75.4479 363.324 76.2552C356.97 77.5364 355.319 79.8802 355.548 85.776C355.642 88.3854 357.184 116.833 358.079 129.088C358.527 135.099 358.882 138.713 361.543 139.708C363.788 140.547 368.934 139.078 374.621 137.922C374.6 130.057 373.793 122.187 373.35 114.344C372.84 105.229 372.829 96.0729 372.444 86.9479ZM347.21 131.437C345.991 117.625 345.293 103.766 344.251 89.9322C343.298 77.2968 351.007 69.1302 362.866 66.651C371.783 64.7864 383.355 67.9114 383.428 79.026C383.533 93.5104 384.595 143.469 385.163 153.573C385.574 161.026 386.079 167.193 383.757 173.557C382.033 178.25 374.559 181.979 369.59 182.979C361.142 184.687 352.241 180.484 352.142 170.698C351.996 168.745 351.803 167 351.585 165.021C351.397 163.328 351.423 161.583 353.21 161.156L353.689 161.036C353.21 161.156 361.048 158.812 361.251 160.422C361.553 166.135 361.72 166.495 361.892 169.036C362.23 173.911 365.111 174.234 368.611 173.463C374.819 172.078 375.704 168.463 375.647 164.198C375.194 157.578 374.98 154.26 374.559 147.635C372.116 148.302 368.428 149.036 366.35 149.542C360.027 151.083 351.866 150.24 349.486 142.984C348.34 139.5 347.543 135.161 347.21 131.437Z" fill="#23293A"/>
<path d="M397.344 74.2605C397.313 71.5001 398.006 69.099 399.193 67.1199C399.328 66.7761 399.459 66.4272 399.969 66.0261C401.907 62.8022 405.834 60.0261 411.136 58.7136C415.532 57.6355 420.474 57.8126 424.844 58.1042C425.412 58.0365 426.042 58.6094 425.917 59.1094C425.594 62.0001 425.443 63.448 425.136 66.349C425.006 66.849 424.339 67.4115 423.948 67.3022C421.209 67.4376 419.834 67.5105 417.089 67.6772L416.177 67.8022C411.771 68.3751 408.657 70.2813 408.568 74.5365C408.506 77.2084 408.506 78.5469 408.459 81.2188C408.125 98.2449 407.74 115.266 407.917 132.297C407.948 135.615 407.98 137.276 408.037 140.594C408.11 141.073 407.521 141.656 407.021 141.734C406.167 141.927 405.74 142.026 404.881 142.234C403.245 142.646 402.589 142.76 398.881 143.068C398.386 143.156 397.969 142.734 397.886 142.26C396.693 119.599 397.631 96.9324 397.344 74.2605Z" fill="#23293A"/>
<path d="M454.811 99.7348C453.129 99.8807 452.28 99.9536 450.592 100.11C441.441 100.948 439.426 104.969 439.321 109C439.264 111.428 439.53 113.74 438.91 122.339C438.649 125.917 441.983 128.313 445.712 127.933C449.103 127.594 453.363 125.261 453.618 121.032C454.056 113.933 454.399 106.834 454.811 99.7348ZM468.967 68.9379C468.67 72.6359 468.582 74.4848 468.337 78.1827C467.899 84.839 467.483 86.8025 467.306 88.9171C467.056 92.0265 465.248 114.094 464.603 122.709C463.915 131.803 453.837 136.428 446.035 137.464C437.915 138.532 428.509 133.74 428.514 125.021C428.524 119.803 428.129 117.454 428.274 112.219C428.353 109.355 428.509 106.068 429.41 103C430.097 100.672 430.993 98.4275 432.597 96.9432C436.681 92.0994 442.176 91.115 447.155 90.5577C450.644 90.1671 452.394 90.0734 455.889 89.7817C456.483 83.5213 456.853 80.3963 457.436 74.1307C458.139 66.49 457.202 62.6671 450.342 62.9223C441.644 63.2557 441.009 74.0161 441.024 80.3077L441.04 80.4692C440.91 80.9692 440.426 81.5057 439.884 81.5629L438.103 81.9067C435.212 82.1515 433.759 82.2452 430.873 82.5473C430.332 82.6046 429.733 82.1879 429.863 81.6879L430.16 73.5421C430.498 64.5473 436.191 56.1411 445.629 54.7765C447.462 54.2817 449.337 54.1202 451.004 53.9692C460.608 53.1202 469.847 57.8754 468.967 68.9379Z" fill="#23293A"/>
<path d="M504.033 125.333C503.59 128.078 503.538 132.916 501.689 132.958L500.173 133C497.319 133.067 494.47 133.448 491.595 133.281C480.22 132.609 478.783 120.338 480.095 111.541C481.033 100.302 481.871 89.0518 483.059 77.8382C483.553 73.1611 484.699 64.0205 484.85 62.5986C481.97 62.7184 480.527 62.7913 477.647 62.9476C476.355 63.0101 475.876 62.6143 476.517 56.3903C476.934 52.2236 484.913 53.9736 486.043 52.8695C486.704 52.2236 486.366 47.8538 486.991 44.932C487.522 40.2653 487.788 37.932 488.35 33.2653C488.496 32.1351 494.059 31.7757 495.97 31.7184C499.616 31.6143 500.277 32.583 499.934 35.4841C499.116 42.2966 498.538 45.6768 497.642 52.4736C503.626 52.3122 506.621 52.2549 512.611 52.208C514.111 52.1924 513.366 54.4528 513.22 55.7445C513.069 57.0934 513.027 57.7809 512.897 59.1299C512.376 61.8747 509.793 61.8955 507.762 61.9268C506.652 61.9476 506.095 61.9528 504.986 61.9788C500.918 62.0518 496.855 62.3226 496.855 62.1611L496.303 62.182C495.658 76.2288 493.267 90.2809 491.783 104.25C491.303 108.646 491.105 110.849 490.668 115.255C489.335 123.791 497.189 123.281 503.126 123.25C504.324 123.25 504.017 124.687 504.033 125.333Z" fill="#23293A"/>
<path d="M545.531 72.599C546.765 66.1875 548.041 59.7917 549.244 53.3802C549.473 52.0937 553.952 52.4323 556.39 52.5469C558.447 52.6458 561.296 52.6354 561.025 53.901C560.937 54.2917 560.88 54.474 560.791 54.8646C560.765 55.3385 560.135 57.5677 559.609 60.2812C555.973 79.1875 551.64 97.9531 548.031 116.865C546.223 126.354 540.682 131.786 531.442 133.49C529.916 133.766 528.208 133.786 526.728 133.75C518.796 133.516 510.468 128.401 511.395 119.406C513.166 102.313 515.796 84.8698 518.296 67.6458C519.359 62.4844 520.255 56.8333 520.807 52.8229C520.984 51.5365 524.551 51.7083 526.421 51.724C531.296 51.7656 532.603 51.4792 532.005 55.6615C530.666 61.7656 529.843 67.9687 528.906 74.1458C526.9 87.2917 522.333 116.854 522.025 119.052C521.442 123.229 523.895 124.849 527.978 124.896C532.749 124.953 536.228 121.661 537.176 116.526C539.906 101.87 542.697 87.2292 545.531 72.599Z" fill="#23293A"/>
<path d="M594.116 24.2764C593.892 25.1671 590.527 37.7608 589.1 43.4066C585.683 56.891 575.986 98.7139 574.355 106.084C573.897 107.657 573.694 109.323 572.121 115.776C570.595 122.047 571.84 124.933 577.97 125.433C580.22 125.61 581.345 125.709 583.595 125.901C584.111 125.948 584.579 126.474 584.371 126.943C583.626 129.922 583.288 131.417 582.538 134.386C582.298 135.334 582.1 135.474 581.262 135.407C579.043 135.209 577.939 135.084 575.71 134.943C567.48 134.459 559.137 128.386 560.652 119.724C561.673 113.901 562.819 107.787 564.058 101.844C565.308 95.8441 581.543 25.6306 582.079 23.2816C582.371 22.016 586.444 22.3233 589.366 22.5733C590.923 22.7035 594.407 23.1723 594.116 24.2764Z" fill="#23293A"/>
<path d="M621.334 103.88C619.647 103.646 618.803 103.531 617.115 103.312C607.97 102.12 605.105 105.609 604.121 109.515C603.532 111.864 603.292 114.192 600.798 122.437C599.756 125.875 602.501 128.942 606.235 129.396C609.626 129.802 614.313 128.469 615.49 124.39C617.48 117.557 619.376 110.708 621.334 103.88ZM641.97 76.9425C640.871 80.4841 640.371 82.2706 639.324 85.8227C637.433 92.2185 636.595 94.0362 635.954 96.0623C635.027 99.0414 628.417 120.182 625.897 128.442C623.225 137.182 612.313 139.463 604.464 138.755C596.303 138.021 588.115 131.302 590.032 122.776C591.188 117.687 591.318 115.307 592.61 110.245C593.318 107.458 594.183 104.281 595.746 101.489C596.923 99.3748 598.287 97.3696 600.193 96.281C605.246 92.4425 610.845 92.6873 615.839 93.2341C619.339 93.6248 621.084 93.9164 624.568 94.4008C626.532 88.4216 627.579 85.4581 629.516 79.4737C631.891 72.1768 631.803 68.2341 625.022 66.9737C616.454 65.3852 613.449 75.7393 612.089 81.9008L612.063 82.0623C611.829 82.5102 611.23 82.9321 610.693 82.8696L608.865 82.8123C605.985 82.4164 604.542 82.1873 601.652 81.8487C601.115 81.7862 600.621 81.255 600.845 80.7914L602.928 72.9112C605.246 64.1925 612.667 57.2446 622.188 57.9893C624.095 57.906 625.964 58.1664 627.636 58.3852C637.193 59.6612 645.266 66.2966 641.97 76.9425Z" fill="#23293A"/>
<path d="M664.048 139.682C663.006 142.266 661.902 146.974 660.068 146.61L658.574 146.313C655.74 145.755 652.87 145.5 650.079 144.698C639.079 141.547 640.313 129.292 643.548 120.958C646.933 110.203 650.225 99.4064 653.844 88.7241C655.355 84.2658 658.48 75.6095 658.938 74.2449C656.079 73.7345 654.652 73.4845 651.798 73.0001C650.511 72.7814 650.136 72.2918 652.12 66.3543C653.449 62.3803 660.891 65.8647 662.256 65.021C663.037 64.5366 663.667 60.2033 664.917 57.4793C666.464 53.047 667.235 50.8283 668.813 46.4012C669.204 45.3283 674.735 46.2085 676.636 46.5783C680.24 47.2814 680.678 48.3699 679.699 51.1251C677.417 57.5835 676.1 60.7605 673.73 67.1876C679.652 68.3491 682.605 68.9533 688.506 70.2293C689.98 70.5522 688.756 72.5991 688.334 73.823C687.881 75.1095 687.699 75.7605 687.271 77.0522C686.162 79.6199 683.615 79.073 681.605 78.6512C680.506 78.4168 679.959 78.3074 678.87 78.0783C674.85 77.2553 670.798 76.6355 670.834 76.4741L670.282 76.3699C666.574 89.9324 661.146 103.115 656.62 116.412C655.193 120.604 654.516 122.703 653.12 126.912C649.933 134.969 657.808 136.188 663.61 137.464C664.787 137.724 664.173 139.052 664.048 139.682Z" fill="#23293A"/>
<path d="M712.422 65.49C712.308 65.9692 711.641 66.2973 711.084 66.1619C707.37 65.2556 705.506 64.8233 701.787 63.9587C701.23 63.8285 700.776 63.2296 700.881 62.7556C701.672 60.9535 702.084 59.0629 704.167 55.0837C704.271 54.6046 704.943 54.266 705.506 54.3962C708.516 55.0994 711.808 55.8077 714.917 56.6514C715.464 56.7921 715.933 57.4014 715.818 57.8702C714.881 60.1306 714.349 62.3181 712.422 65.49ZM689.599 92.2504C691.818 86.7348 696.599 75.1306 697.469 72.8858C697.938 71.6671 701.803 72.5577 704.563 73.2087C706.032 73.5681 709.297 74.5212 708.865 75.5681C708.506 76.4171 703.318 88.4014 701.141 93.7712C694.224 110.808 680.105 147.355 679.683 148.657C679.047 150.657 676.672 150.448 675.349 150.157C672.365 149.495 670.146 149.25 669.308 148.349C668.532 147.511 669.073 146.329 669.735 144.651C676.563 127.256 682.62 109.589 689.599 92.2504Z" fill="#23293A"/>
<path d="M738.549 91.2913C732.419 89.5308 728.924 92.0829 726.981 96.0725C725.84 98.4267 707.241 141.218 706.387 143.26C704.773 147.161 707.267 149.484 711.262 150.578C715.908 151.843 720.137 149.541 722.372 144.817C728.689 131.479 743.101 101.859 744.096 99.8017C746.064 95.6767 742.523 92.4267 738.549 91.2913ZM755.189 103.031C749.757 113.432 745.012 124.177 739.835 134.703C735.794 142.921 733.887 145.859 732.919 147.927C728.439 157.531 717.715 161.791 707.799 158.823C700.788 156.713 691.908 151.14 695.346 142.437C698.163 135.296 700.908 128.088 703.861 120.984C707.533 112.156 711.247 103.354 714.939 94.5361C719.872 82.7704 730.674 79.2236 742.392 82.5048C751.122 84.9527 760.507 92.8329 755.189 103.031Z" fill="#23293A"/>
<path d="M768.889 105.438C773.249 96.5576 786.4 96.8805 794.249 99.6149C799.728 101.521 805.04 105.511 806.306 111.542C806.582 112.881 806.556 114.375 806.348 115.709C806.056 117.552 805.707 119.802 802.79 125.042C793.968 140.87 784.509 157.047 775.915 172.381C774.134 175.568 772.421 178.808 771.134 178.328C770.275 178.078 767.41 177.224 766.353 176.912C764.853 176.224 764.103 175.886 762.593 175.203C762.108 175.026 761.926 174.417 762.108 174C768.343 159.532 778.483 144.084 786.843 129.677C789.546 125.006 794.103 119.365 794.822 114.25C795.171 111.787 794.301 109.058 789.863 107.448C785.593 105.896 781.244 106.61 779.29 110.354C778.046 112.729 777.369 113.886 776.093 116.235C766.587 133.782 756.988 151.302 747.999 169.125C747.843 169.584 747.046 169.828 746.551 169.667L744.389 169.115C743.093 168.688 742.436 168.479 741.139 168.058C740.124 167.657 739.603 167.464 738.582 167.068C738.098 166.912 737.91 166.349 738.056 165.886C747.473 145.287 759.181 125.229 768.889 105.438Z" fill="#23293A"/>
<path d="M830.644 190.25C824.842 184.615 818.441 179.427 811.035 176.125C802.181 172.188 788.238 172.13 784.551 183.313C781.629 192.177 786.988 201.948 795.462 205.38C809.483 211.073 823.811 202.943 830.644 190.25ZM918.639 205.99C906.301 226.339 874.832 221 857.998 211.609C851.269 207.854 845.467 203.51 839.457 198.396C829.311 214 809.071 221.688 791.66 214.797C777.217 209.089 769.123 193.557 774.498 179.25C780.228 164.016 798.827 159.865 813.228 166.37C820.983 169.875 828.103 175.063 834.353 180.953C840.728 155.484 816.613 132.156 826.853 106.917C832.91 91.9688 848.41 86.8646 862.754 93.1094C870.983 96.6927 877.259 105.76 872.998 114.755C870.384 120.266 862.196 130.229 857.113 129.172C856.238 128.984 848.91 123.984 849.759 122.073C849.952 121.63 850.327 121.266 850.811 121.125C854.457 117.656 858.561 114.214 860.676 109.505C861.863 106.865 861.217 102.87 856.931 100.917C848.155 96.9011 841.415 105.703 838.295 112.609C833.217 123.807 838.65 136.609 841.837 147.313C846.04 161.406 848.186 172.719 843.65 189.682C844.722 193.271 854.9 199.38 861.452 203.047C874.233 210.193 898.691 217.01 908.384 200.344C909.269 198.818 910.014 197.193 911.321 193.469C912.295 191.802 917.702 193.714 919.801 194.99C922.535 196.651 922.15 200.203 918.639 205.99Z" fill="#23293A"/>
<path d="M63.1289 142.468C62.7643 142.468 62.3946 142.375 62.056 142.177C61.0143 141.588 60.6602 140.255 61.2487 139.224C65.9206 131.041 70.2956 126.802 79.2487 121.765C80.2904 121.177 81.6133 121.547 82.1966 122.588C82.7852 123.63 82.4154 124.953 81.3737 125.547C73.1081 130.198 69.2852 133.896 65.0143 141.37C64.6133 142.073 63.8789 142.468 63.1289 142.468Z" fill="#ECDED7"/>
<path d="M67.2204 158.563C66.8663 158.563 66.5017 158.474 66.1631 158.287C65.1215 157.698 64.7517 156.38 65.335 155.334C69.0642 148.677 75.7829 141.985 81.309 139.417C82.4027 138.917 83.684 139.391 84.1944 140.474C84.6944 141.563 84.2152 142.849 83.1371 143.36C78.4236 145.547 72.3923 151.604 69.1163 157.459C68.7152 158.167 67.9808 158.563 67.2204 158.563Z" fill="#ECDED7"/>
<path d="M81.4176 200.026C80.9541 200.026 80.4958 199.881 80.0999 199.584C79.1468 198.86 78.9697 197.5 79.6989 196.547C83.2301 191.907 88.1937 188.24 93.6572 186.214C94.7874 185.792 96.027 186.365 96.4385 187.49C96.8603 188.61 96.2874 189.86 95.1676 190.271C90.4541 192.016 86.1833 195.183 83.1416 199.183C82.7145 199.74 82.0687 200.026 81.4176 200.026Z" fill="#ECDED7"/>
<path d="M92.0306 217.234C91.6608 217.234 91.291 217.14 90.9421 216.937C89.9108 216.333 89.5619 215.005 90.1712 213.974C92.6244 209.76 97.1244 206.479 100.463 204.468C101.489 203.854 102.822 204.187 103.442 205.213C104.057 206.244 103.723 207.578 102.692 208.192C98.5306 210.692 95.489 213.447 93.9056 216.156C93.5098 216.849 92.7858 217.234 92.0306 217.234Z" fill="#ECDED7"/>
<path d="M101.562 233.12C101.151 233.12 100.734 233.005 100.359 232.755C99.3696 232.093 99.0936 230.745 99.7551 229.75C102.234 226.015 105.62 222.896 109.552 220.739C110.599 220.166 111.927 220.547 112.5 221.593C113.073 222.646 112.693 223.968 111.64 224.541C108.328 226.37 105.463 228.995 103.37 232.151C102.953 232.781 102.265 233.12 101.562 233.12Z" fill="#ECDED7"/>
<path d="M109.473 246.985C109.052 246.985 108.624 246.865 108.244 246.594C107.26 245.917 107.01 244.568 107.697 243.583C111.369 238.261 116.38 233.953 122.182 231.115C123.26 230.594 124.552 231.037 125.083 232.11C125.609 233.182 125.166 234.485 124.083 235.011C118.942 237.521 114.515 241.339 111.255 246.047C110.833 246.662 110.166 246.985 109.473 246.985Z" fill="#ECDED7"/>
<path d="M307.677 284.557C307.656 284.557 307.63 284.557 307.604 284.557C233.547 282.068 159.729 278.12 121.39 266.208C120.244 265.854 119.604 264.646 119.963 263.495C120.317 262.349 121.536 261.714 122.672 262.068C160.526 273.833 234 277.74 307.75 280.219C308.948 280.26 309.89 281.26 309.849 282.458C309.807 283.63 308.849 284.557 307.677 284.557Z" fill="#F1EDE4"/>
<mask id="mask4_1694_670" style="mask-type:luminance" maskUnits="userSpaceOnUse" x="0" y="274" width="204" height="65">
<path d="M0.578125 274.667H204V338.667H0.578125V274.667Z" fill="white"/>
</mask>
<g mask="url(#mask4_1694_670)">
<path d="M2.94981 338.063C2.58001 338.063 2.19981 337.958 1.85085 337.755C0.819597 337.141 0.481057 335.807 1.09564 334.781C10.6425 318.688 28.6321 310.516 43.2467 305.198C63.5123 297.818 178.846 277.109 200.893 274.849C202.075 274.729 203.143 275.594 203.273 276.786C203.393 277.974 202.523 279.042 201.335 279.161C179.403 281.417 64.804 301.958 44.7311 309.276C30.7988 314.344 13.6686 322.089 4.8196 336.995C4.40814 337.682 3.6946 338.063 2.94981 338.063Z" fill="#F1EDE4"/>
</g>
<path d="M118.426 258.984C117.994 258.984 117.556 258.854 117.176 258.589C116.202 257.896 115.968 256.547 116.66 255.557C119.874 251.016 124.098 247.12 128.9 244.302C129.936 243.698 131.259 244.037 131.863 245.068C132.468 246.104 132.129 247.438 131.098 248.042C126.827 250.552 123.061 254.016 120.197 258.063C119.775 258.667 119.103 258.984 118.426 258.984Z" fill="#ECDED7"/>
<path d="M71.5206 171.901C71.1717 171.901 70.8175 171.813 70.4894 171.636C69.4373 171.073 69.0415 169.755 69.6144 168.698C71.3696 165.474 74.1821 162.917 77.5571 161.485C78.6613 161.026 79.9269 161.542 80.3956 162.641C80.8644 163.745 80.3488 165.016 79.2446 165.485C76.8071 166.516 74.6925 168.438 73.4269 170.766C73.0363 171.49 72.2863 171.901 71.5206 171.901Z" fill="#ECDED7"/>
<path d="M76.2192 185.849C75.7244 185.849 75.2192 185.677 74.813 185.334C73.9015 184.547 73.7974 183.183 74.5786 182.271C78.4536 177.75 81.8182 175.344 86.2088 173.969C87.3546 173.615 88.563 174.25 88.9276 175.401C89.2817 176.537 88.6463 177.756 87.5005 178.115C83.9067 179.235 81.2036 181.198 77.8651 185.099C77.438 185.599 76.8338 185.849 76.2192 185.849Z" fill="#ECDED7"/>
<path d="M904.761 269.078C904.49 269.078 904.198 269.026 903.922 268.907C896.912 265.953 729.672 196.578 521.104 196.578C340.271 196.578 184.677 238.214 131.953 267.776C130.912 268.365 129.589 267.995 129.005 266.943C128.417 265.901 128.792 264.578 129.828 264C182.969 234.203 339.49 192.245 521.104 192.245C599.99 192.245 682.24 202.136 765.584 221.646C845.396 240.328 896.224 260.964 905.61 264.912C906.709 265.37 907.229 266.646 906.761 267.756C906.417 268.584 905.61 269.078 904.761 269.078Z" fill="#ECDED7"/>
</svg>
