<svg width="834" height="632" viewBox="0 0 834 632" fill="none" xmlns="http://www.w3.org/2000/svg">
<mask id="mask0_1693_860" style="mask-type:luminance" maskUnits="userSpaceOnUse" x="0" y="27" width="832" height="604">
<path d="M831.031 76.4512L35.0827 27.2311L0.810823 581.449L796.759 630.669L831.031 76.4512Z" fill="white"/>
</mask>
<g mask="url(#mask0_1693_860)">
<path d="M29.3118 581.77C44.8977 582.734 61.6929 576.044 73.4053 564.834C93.3437 545.741 103.053 517.451 111.282 490.126L112.673 485.482C120.383 459.765 128.356 433.192 144.675 412.945C167.198 385.041 206.029 371.253 246.029 376.981C283.633 382.351 318.478 402.763 347.611 422.02C354.347 426.492 361.179 431.122 367.777 435.62C392.042 452.159 417.125 469.236 444.085 480.956C462.341 488.895 480.773 492.975 497.357 492.757C517.162 492.482 533.637 486.214 546.349 474.136C567.532 453.969 576.461 419.065 572.867 370.416C571.488 351.737 568.983 332.906 566.555 314.685C563.297 290.183 559.932 264.85 559.271 239.672C558.342 203.519 563.424 152.792 592.882 116.461C618.72 84.5891 661.816 67.6372 708.277 71.0797C747.903 74.0066 784.933 89.3472 828.336 111.462L828.73 110.533C785.246 88.3671 748.123 72.9975 708.351 70.05C661.671 66.5823 618.22 83.6749 592.198 115.779C562.514 152.375 557.405 203.368 558.343 239.719C558.99 264.954 562.364 290.312 565.631 314.849C568.049 333.046 570.554 351.865 571.926 370.498C575.478 418.818 566.671 453.428 545.725 473.353C522.833 495.146 484.965 497.615 444.427 480.001C417.539 468.32 392.487 451.245 368.251 434.755C361.664 430.257 354.833 425.604 348.075 421.142C318.872 401.834 283.925 381.37 246.156 375.954C205.863 370.197 166.709 384.116 143.981 412.263C127.516 432.663 119.515 459.351 111.778 485.171L110.387 489.815C102.197 517.003 92.5506 545.134 72.7905 564.063C53.7347 582.316 21.0143 588.428 2.69391 568.433L2.03911 569.16C9.43646 577.229 19.1098 581.139 29.3013 581.77L29.3118 581.77Z" fill="#29ABE2"/>
</g>
<path d="M38.0559 580.532C53.4638 581.485 69.9018 574.959 81.4701 564.378C101.397 546.145 111.54 518.997 120.238 492.771C120.807 491.051 121.365 489.343 121.924 487.622C128.669 467.121 135.648 445.914 147.169 428.102C149.494 424.515 151.965 421.112 154.513 418.004C177.16 390.467 214.295 376.552 253.82 380.797C288.09 384.473 318.906 400.325 341.913 413.729C345.181 415.628 348.518 417.612 352.114 419.81C358.761 423.859 365.471 428.086 371.958 432.171C395.032 446.706 418.886 461.72 444.472 471.693C463.281 479.027 510.519 492.686 542.52 461.126C544.838 458.841 547.054 456.34 549.068 453.687C564.798 433.113 571.708 401.28 569.619 359.058C568.74 341.304 566.881 323.42 565.09 306.145C562.565 281.851 559.964 256.751 560.08 231.912C560.224 199.66 565.364 171.296 575.335 147.601C580.808 134.586 587.789 123.048 596.068 113.287C621.97 82.767 664.686 66.5121 710.363 69.8713C749.447 72.7414 786.093 87.4773 829.096 108.742L829.49 107.814C786.395 86.5081 749.657 71.7201 710.437 68.8532C664.53 65.4682 621.491 81.8425 595.396 112.594C587.049 122.433 580.02 134.073 574.499 147.177C564.456 171.007 559.307 199.522 559.155 231.913C559.035 256.81 561.643 281.957 564.167 306.274C565.97 323.538 567.82 341.399 568.69 359.128C570.764 401.07 563.921 432.664 548.373 453.028C546.371 455.647 544.211 458.105 541.915 460.368C510.295 491.545 463.46 478.004 444.794 470.725C419.292 460.781 395.468 445.78 372.435 431.27C365.947 427.185 359.238 422.959 352.581 418.898C348.974 416.699 345.638 414.703 342.37 412.804C319.281 399.36 288.364 383.445 253.926 379.758C235.48 377.78 216.761 379.865 199.792 385.8C181.394 392.216 165.506 403.111 153.841 417.3C151.271 420.43 148.767 423.854 146.43 427.475C134.849 445.411 127.845 466.675 121.074 487.245C120.516 488.965 119.947 490.684 119.379 492.393C110.74 518.506 100.649 545.494 80.9105 563.565C62.1196 580.765 30.2362 587.114 11.4894 567.384L10.8542 568.135C18.3963 576.074 28.0229 579.888 38.0678 580.51L38.0559 580.532Z" fill="#29ABE2"/>
<path d="M46.9312 579.151C49.2879 579.297 51.6972 579.272 54.1481 579.086C66.764 578.088 79.6703 572.565 89.561 563.949C109.488 546.575 120.065 520.558 129.201 495.417C129.885 493.53 130.571 491.632 131.257 489.71C138.299 470.203 145.571 450.037 157.007 432.917C159.347 429.424 161.813 426.113 164.355 423.086C186.592 396.582 222.524 382.22 260.63 384.576C260.955 384.596 261.28 384.617 261.615 384.637C294.929 386.953 324.668 400.657 346.835 412.336C349.951 413.982 353.156 415.714 356.643 417.638C363.15 421.236 369.699 425 376.025 428.633C397.937 441.214 420.592 454.202 444.863 462.466C462.874 468.601 508.097 479.474 538.707 448.153C540.94 445.874 543.082 443.368 545.043 440.735C560.407 420.116 567.377 389.704 566.375 347.747C565.961 330.987 564.731 314.153 563.539 297.89C561.784 273.726 559.964 248.744 560.874 224.174C562.034 193.008 567.854 165.709 578.172 143.034C583.854 130.556 590.931 119.5 599.236 110.159C625.214 80.9684 667.55 65.4222 712.443 68.7096C750.964 71.4984 787.236 85.6533 829.85 106.069L830.224 105.128C787.528 84.6719 751.164 70.4765 712.506 67.6908C691.266 66.1798 669.949 68.8012 650.87 75.3496C629.89 82.5475 612.306 94.0112 598.577 109.432C590.203 118.862 583.058 130.007 577.329 142.564C566.949 165.374 561.099 192.822 559.94 224.14C559.016 248.778 560.844 273.795 562.619 297.973C563.812 314.224 565.033 331.034 565.448 347.783C566.444 389.484 559.541 419.679 544.326 440.087C542.388 442.686 540.28 445.147 538.069 447.405C507.808 478.364 463.001 467.563 445.123 461.495C420.945 453.248 398.332 440.274 376.45 427.707C370.114 424.072 363.564 420.32 357.037 416.709C353.56 414.786 350.346 413.042 347.23 411.396C324.981 399.677 295.15 385.921 261.668 383.606C222.909 380.931 186.286 395.412 163.663 422.381C161.098 425.43 158.599 428.773 156.246 432.3C144.741 449.52 137.443 469.767 130.387 489.331C129.702 491.229 129.017 493.128 128.331 495.026C119.257 520.032 108.73 545.912 88.9812 563.123C70.3649 579.369 38.8063 585.227 20.2558 566.403L19.6302 567.167C26.7035 574.356 36.2159 578.489 46.9312 579.151Z" fill="#29ABE2"/>
<path d="M55.5381 577.789C70.4012 578.708 86.1691 572.989 97.6296 563.471C117.567 546.946 128.578 522.083 138.161 498.039C138.984 495.951 139.818 493.853 140.653 491.743C147.948 473.251 155.492 454.124 166.832 437.707C169.177 434.308 171.647 431.09 174.186 428.121C196.377 402.183 231.981 387.348 269.398 388.441C301.724 389.383 330.387 400.94 351.757 410.897C354.741 412.29 357.814 413.77 361.141 415.405C367.467 418.516 373.826 421.779 379.962 424.925C400.752 435.589 422.255 446.611 445.233 453.191C461.341 457.778 477.354 459.141 491.548 457.113C508.914 454.631 523.492 447.235 534.87 435.143C537.03 432.848 539.087 430.36 541.006 427.725C555.776 407.371 563.007 377.498 563.11 336.376C563.143 320.713 562.503 305.042 561.885 289.873C560.86 264.626 559.895 240.778 561.657 216.377C563.822 186.296 570.323 160.05 580.999 138.397C586.879 126.454 594.083 115.882 602.405 106.96C628.526 79.0224 668.719 64.6336 712.9 67.3657C713.434 67.3988 713.969 67.4318 714.513 67.4655C756.722 70.4707 796.567 87.5427 830.606 103.303L830.969 102.361C796.858 86.5729 756.942 69.4616 714.587 66.4473C669.489 63.2402 628.385 77.7353 601.767 106.223C593.368 115.21 586.106 125.871 580.188 137.917C569.452 159.694 562.91 186.077 560.736 216.297C558.971 240.755 559.981 265.746 560.968 289.921C561.577 305.066 562.207 320.725 562.195 336.378C562.087 377.243 554.92 406.923 540.289 427.076C538.405 429.667 536.37 432.133 534.233 434.395C505.354 465.091 462.542 457.062 445.484 452.184C422.579 445.631 401.127 434.624 380.377 423.986C374.232 420.828 367.872 417.576 361.536 414.453C358.209 412.818 355.125 411.337 352.131 409.944C330.69 399.948 301.924 388.361 269.44 387.41C231.751 386.311 195.898 401.259 173.514 427.417C170.954 430.396 168.46 433.659 166.093 437.08C154.683 453.598 147.114 472.781 139.795 491.33C138.96 493.44 138.137 495.539 137.304 497.614C127.78 521.546 116.831 546.262 97.0715 562.634C78.241 578.263 47.6435 583.541 29.0424 565.365L28.4169 566.129C36.0219 573.56 45.5777 577.161 55.5283 577.776L55.5381 577.789Z" fill="#29ABE2"/>
<path d="M64.4646 576.435C66.6119 576.568 68.8201 576.565 71.0474 576.424C83.2174 575.666 95.8525 570.787 105.721 563.042C125.69 547.356 137.125 523.635 147.124 500.685C148.139 498.389 149.134 496.068 150.141 493.725C157.676 476.271 165.47 458.205 176.68 442.535C179.04 439.23 181.527 436.083 184.039 433.205C206.001 408.078 240.824 392.788 277.204 392.283C308.51 391.86 336.129 401.261 356.69 409.506C359.584 410.661 362.536 411.889 365.692 413.223C371.787 415.82 377.886 418.533 383.79 421.164C404.419 430.354 423.891 439.042 445.645 443.967C466.033 448.551 504.24 451.82 531.077 422.172C533.165 419.872 535.158 417.392 537.002 414.775C551.371 394.443 558.644 365.933 559.898 325.068C560.329 310.626 560.231 296.221 560.136 282.293C559.969 256.937 559.82 232.987 562.481 208.666C565.651 179.669 572.845 154.477 583.857 133.844C589.935 122.436 597.257 112.348 605.616 103.836C632.127 76.9097 672.591 63.235 716.613 66.3291C758.217 69.2389 797.667 85.5659 831.38 100.643L831.733 99.689C797.949 84.5839 758.428 68.2176 716.677 65.2987C672.35 62.1974 631.67 75.9633 604.979 103.087C596.553 111.654 589.183 121.844 583.058 133.33C571.974 154.098 564.741 179.415 561.562 208.551C558.876 232.952 559.044 256.926 559.198 282.316C559.295 296.233 559.381 310.649 558.963 325.057C557.733 365.69 550.515 394.007 536.283 414.161C534.452 416.733 532.492 419.191 530.437 421.47C503.905 450.777 466.054 447.53 445.844 442.968C424.172 438.06 404.731 429.397 384.142 420.233C378.239 417.59 372.129 414.888 366.034 412.28C362.868 410.934 359.925 409.729 357.022 408.561C336.377 400.3 308.667 390.859 277.202 391.284C240.582 391.773 205.499 407.187 183.377 432.513C180.831 435.424 178.343 438.594 175.95 441.921C164.682 457.691 156.864 475.802 149.304 493.324C148.297 495.656 147.292 497.965 146.287 500.273C136.338 523.098 124.975 546.684 105.182 562.23C86.7921 576.689 56.949 582.351 37.8398 564.399L37.2345 565.175C44.3888 571.905 53.8841 575.804 64.4632 576.458L64.4646 576.435Z" fill="#29ABE2"/>
<path d="M72.9969 575.068C87.5457 575.967 102.743 570.806 113.796 562.599C133.82 547.742 146.126 524.214 156.081 503.33C157.289 500.79 158.499 498.227 159.721 495.653C167.466 479.222 175.454 462.261 186.502 447.348C188.888 444.126 191.369 441.072 193.877 438.263C215.579 413.945 249.642 398.19 285.005 396.112C315.228 394.331 341.823 401.578 361.619 408.089C364.369 409.003 367.192 409.956 370.206 411.026C375.999 413.069 381.776 415.216 387.357 417.281C406.937 424.559 425.428 431.431 446.044 434.705C465.422 437.763 501.756 438.51 527.26 409.163C529.262 406.881 531.183 404.385 532.974 401.777C551.034 375.479 555.134 338.927 556.641 313.709C557.405 300.671 557.778 287.678 558.145 275.103C558.889 249.478 559.597 225.279 563.261 200.88C567.436 172.98 575.32 148.865 586.681 129.23C592.958 118.346 600.397 108.741 608.772 100.66C635.346 75.0857 675.441 62.1087 718.69 65.1201C759.679 67.9454 798.734 83.5274 832.132 97.9113L832.475 96.9563C799.015 82.5454 759.879 66.9234 718.764 64.0904C675.218 61.1187 634.932 74.1303 608.168 99.89C599.725 108.038 592.239 117.732 585.905 128.682C574.474 148.441 566.55 172.693 562.355 200.731C558.677 225.187 557.967 249.421 557.221 275.092C556.844 287.644 556.472 300.636 555.719 313.664C554.21 338.742 550.153 375.099 532.232 401.185C530.464 403.76 528.567 406.211 526.588 408.471C501.368 437.475 465.381 436.737 446.18 433.702C425.647 430.434 407.198 423.575 387.659 416.312C382.078 414.236 376.291 412.088 370.498 410.045C367.462 408.985 364.652 408.01 361.889 407.118C342.011 400.578 315.323 393.303 284.952 395.086C249.369 397.174 215.077 413.054 193.217 437.549C190.686 440.39 188.193 443.467 185.784 446.711C174.669 461.69 166.656 478.719 158.898 495.183C157.688 497.747 156.477 500.321 155.269 502.85C145.352 523.632 133.118 547.024 113.282 561.742C95.087 575.248 65.5372 580.417 46.6258 563.349L46.04 564.15C53.7784 571.125 63.2459 574.453 72.9976 575.056L72.9969 575.068Z" fill="#29ABE2"/>
<path d="M81.8775 573.794C96.0389 574.67 110.77 569.898 121.88 562.136C141.968 548.119 154.693 525.791 165.056 505.967C166.522 503.176 167.98 500.349 169.439 497.499C177.338 482.147 185.501 466.278 196.352 452.166C198.743 449.037 201.229 446.065 203.722 443.325C225.479 419.475 257.948 403.656 292.803 399.931C321.868 396.824 347.482 401.906 366.554 406.688C369.153 407.337 371.833 408.037 374.749 408.822C380.147 410.294 385.518 411.847 390.703 413.353C409.318 418.734 426.899 423.819 446.449 425.458C468.921 427.289 500.516 423.723 523.459 396.181C525.378 393.883 527.234 391.406 528.962 388.805C545.997 363.269 550.974 329.201 553.411 302.378C554.423 290.947 555.18 279.547 555.925 268.518C557.655 242.419 559.306 217.756 564.078 193.135C569.257 166.342 577.821 143.304 589.532 124.632C596.007 114.294 603.563 105.162 611.965 97.5002C638.369 73.4847 677.577 61.2547 719.674 63.8579C720.051 63.8812 720.407 63.9032 720.784 63.9265C761.137 66.666 799.817 81.5043 832.9 95.2063L833.243 94.2398C800.099 80.5107 761.348 65.6447 720.858 62.8968C720.481 62.8735 720.114 62.8508 719.748 62.8282C677.41 60.2101 637.966 72.53 611.394 96.7095C602.914 104.436 595.311 113.635 588.779 124.051C576.999 142.823 568.384 165.998 563.186 192.928C558.389 217.618 556.746 242.316 555.004 268.461C554.27 279.467 553.514 290.856 552.491 302.286C550.074 328.971 545.128 362.866 528.231 388.202C526.517 390.769 524.683 393.212 522.787 395.477C500.095 422.721 468.805 426.271 446.534 424.429C427.067 422.795 409.527 417.724 390.955 412.346C385.749 410.838 380.377 409.286 374.979 407.825C372.063 407.04 369.383 406.34 366.774 405.679C347.639 400.893 321.932 395.782 292.729 398.915C257.652 402.662 224.977 418.584 203.073 442.599C200.558 445.361 198.049 448.355 195.636 451.495C184.728 465.684 176.552 481.599 168.619 496.983C167.161 499.822 165.703 502.649 164.236 505.452C153.944 525.164 141.278 547.368 121.377 561.257C102.915 574.165 74.3313 578.673 55.4069 562.325L54.8309 563.138C62.666 569.91 72.1377 573.168 81.8685 573.77L81.8775 573.794Z" fill="#29ABE2"/>
<path d="M90.6137 572.334C104.555 573.196 119.029 568.85 129.955 561.681C150.139 548.473 163.284 527.368 174.012 508.6C175.781 505.514 177.541 502.38 179.302 499.235C187.312 484.983 195.584 470.247 206.173 456.956C208.579 453.932 211.06 451.053 213.548 448.383C235.012 425.375 266.74 409.115 300.592 403.759C328.413 399.343 353.1 402.241 371.492 405.261C374.126 405.691 376.715 406.153 379.285 406.603C384.15 407.496 388.981 408.446 393.655 409.374C411.438 412.891 428.223 416.218 446.867 416.197C477.322 416.105 502.496 404.681 519.64 383.172C521.474 380.88 523.268 378.399 524.942 375.818C541.123 350.834 546.924 317.374 550.172 291.044C551.332 281.458 552.343 271.91 553.314 262.673C556.143 235.805 558.827 210.427 564.876 185.373C571.058 159.701 580.304 137.715 592.363 120.041C599.047 110.239 606.71 101.59 615.15 94.3376C641.642 71.6291 680.532 60.1116 721.958 62.6734C722.262 62.6921 722.565 62.7109 722.869 62.7297C762.597 65.384 800.891 79.4896 833.669 92.4987L833.992 91.5308C801.151 78.5062 762.796 64.3736 722.932 61.7109C680.932 58.9161 641.448 70.5131 614.579 93.5353C606.084 100.843 598.353 109.557 591.623 119.426C579.494 137.212 570.178 159.309 563.977 185.12C557.912 210.254 555.227 235.655 552.374 262.568C551.404 271.805 550.393 281.342 549.234 290.904C546.004 317.131 540.244 350.419 524.179 375.225C522.518 377.772 520.758 380.22 518.935 382.489C497.506 409.369 467.911 415.105 446.857 415.163C428.319 415.178 411.553 411.875 393.822 408.373C389.148 407.445 384.318 406.484 379.441 405.601C376.873 405.129 374.272 404.689 371.639 404.247C353.174 401.211 328.414 398.297 300.477 402.729C266.423 408.119 234.509 424.495 212.911 447.646C210.399 450.338 207.896 453.239 205.479 456.286C194.844 469.632 186.538 484.412 178.516 498.687C176.754 501.843 174.994 504.965 173.226 508.063C162.546 526.718 149.482 547.711 129.484 560.804C111.227 572.761 82.9355 576.799 64.2101 561.311L63.6432 562.148C71.4662 568.605 80.9144 571.735 90.6137 572.334Z" fill="#29ABE2"/>
<path d="M99.4361 571.055C113.336 571.914 127.508 567.677 138.032 561.239C158.334 548.839 171.878 528.933 182.971 511.245C185.106 507.833 187.28 504.306 189.384 500.88C197.43 487.746 205.745 474.187 216.017 461.771C218.437 458.853 220.914 456.043 223.409 453.443C244.545 431.309 275.523 414.596 308.406 407.565C334.649 401.971 357.525 402.537 376.443 403.846C378.946 404.013 381.416 404.2 383.843 404.397C387.995 404.747 392.061 405.138 396.076 405.514C413.208 407.142 429.39 408.678 447.277 406.937C476.414 404.02 499.48 391.652 515.833 370.187C517.594 367.891 519.314 365.417 520.934 362.844C536.133 338.612 542.606 307.217 546.936 279.709C548.077 272.308 549.153 264.936 550.193 257.807C554.28 229.808 558.134 203.364 565.687 177.625C572.861 153.083 582.798 132.163 595.208 115.452C602.09 106.185 609.881 98.0205 618.337 91.1871C644.926 69.7862 683.499 58.9812 724.244 61.5009C724.485 61.5158 724.726 61.5307 724.957 61.5449C764.059 64.114 801.968 77.4753 834.432 89.7909L834.733 88.8218C802.218 76.4797 764.247 63.103 725.02 60.5261C724.789 60.5119 724.548 60.497 724.307 60.4821C683.342 57.9489 644.544 68.8213 617.778 90.3623C609.256 97.2497 601.419 105.469 594.481 114.802C581.98 131.624 571.995 152.646 564.792 177.314C557.223 203.133 553.346 229.611 549.267 257.645C548.227 264.775 547.15 272.157 546 279.535C541.698 306.94 535.255 338.186 520.161 362.262C518.563 364.801 516.856 367.241 515.117 369.516C498.925 390.769 476.077 403.011 447.194 405.909C429.379 407.654 413.24 406.122 396.149 404.495C392.125 404.107 388.058 403.728 383.895 403.377C381.468 403.181 378.999 402.982 376.496 402.815C357.493 401.512 334.555 400.931 308.215 406.565C275.164 413.609 244.01 430.44 222.74 452.704C220.243 455.327 217.746 458.136 215.313 461.089C204.996 473.536 196.657 487.152 188.589 500.308C186.485 503.723 184.332 507.262 182.187 510.662C171.162 528.261 157.7 548.045 137.573 560.327C120.066 571.04 92.394 575.605 72.9735 560.307L72.438 561.146C80.4686 567.476 89.8835 570.464 99.4256 571.054L99.4361 571.055Z" fill="#29ABE2"/>
<path d="M108.231 569.626C121.89 570.471 135.773 566.658 146.104 560.789C164.507 550.375 177.737 534.516 191.924 513.894C194.523 510.115 197.153 506.187 199.701 502.382C207.706 490.419 215.979 478.042 225.845 466.589C228.292 463.754 230.773 461.037 233.242 458.517C261.683 429.444 297.433 416.512 316.213 411.398C340.619 404.737 361.966 403.152 381.389 402.424C383.76 402.338 386.099 402.262 388.385 402.194C391.481 402.118 394.514 402.05 397.503 401.991C414.327 401.648 430.213 401.318 447.693 397.669C475.457 391.797 496.495 378.548 512.022 357.183C513.699 354.882 515.345 352.415 516.911 349.862C531.837 325.288 538.562 294.919 543.695 268.368C544.598 263.624 545.478 258.914 546.345 254.249C551.889 224.62 557.12 196.634 566.483 169.868C574.638 146.467 585.256 126.6 598.048 110.854C605.117 102.122 613.016 94.4408 621.519 88.0287C648.592 67.6455 685.875 57.8067 726.526 60.3205C726.704 60.3315 726.872 60.3419 727.05 60.3529C765.526 62.8368 803.051 75.4422 835.199 87.0759L835.502 86.0952C803.291 74.446 765.705 61.8136 727.113 59.3225C726.935 59.3115 726.757 59.3005 726.59 59.2902C685.729 56.7634 648.253 66.66 621.004 87.1717C612.445 93.6385 604.491 101.375 597.365 110.161C584.494 126.007 573.816 145.986 565.621 169.513C556.233 196.358 550.999 224.379 545.453 254.054C544.575 258.718 543.696 263.417 542.793 268.161C537.676 294.62 530.99 324.875 516.148 349.292C514.603 351.823 512.981 354.256 511.314 356.547C495.937 377.711 475.085 390.833 447.545 396.66C430.13 400.29 414.286 400.612 397.515 400.958C394.514 401.016 391.483 401.073 388.386 401.16C386.1 401.228 383.762 401.292 381.39 401.39C361.904 402.114 340.504 403.696 316.012 410.386C297.147 415.53 261.226 428.509 232.638 457.747C230.157 460.29 227.655 463.006 225.196 465.875C215.285 477.372 206.989 489.77 198.983 501.756C196.434 505.562 193.804 509.501 191.205 513.269C177.1 533.757 163.96 549.528 145.72 559.858C128.404 569.688 101.018 573.701 81.7956 559.287L81.2699 560.138C89.2982 566.166 98.7322 569.016 108.264 569.605L108.231 569.626Z" fill="#29ABE2"/>
<path d="M117.242 568.332C130.429 569.148 143.802 565.779 154.19 560.332C173.867 550.067 188.262 533.211 200.891 516.537C204.062 512.352 207.13 508.137 210.381 503.678C218.216 492.948 226.326 481.84 235.689 471.39C238.151 468.637 240.637 466.013 243.091 463.562C270.938 435.777 305.75 421.346 324.015 415.2C347.047 407.456 367.432 403.928 386.351 400.984C388.59 400.646 390.788 400.305 392.943 399.974L397.093 399.347C414.985 396.677 430.448 394.367 448.134 388.395C464.718 382.738 488.988 371.99 508.225 344.173C509.828 341.878 511.389 339.418 512.893 336.873C526.735 313.324 534.089 284.516 540.457 257.03L541.482 252.527C548.78 220.543 555.663 190.346 567.281 162.127C576.416 139.88 587.715 121.078 600.89 106.273C608.168 98.0771 616.174 90.8672 624.704 84.8751C651.885 65.8118 688.872 56.6752 728.863 59.1482L729.146 59.1657C766.987 61.5522 804.125 73.4364 835.98 84.3779L836.262 83.3959C804.355 72.4395 767.155 60.5399 729.21 58.1353C688.886 55.6069 651.623 64.7845 624.211 84.0078C615.625 90.0546 607.554 97.3069 600.241 105.559C586.996 120.464 575.618 139.354 566.444 161.727C554.788 190.036 547.892 220.279 540.591 252.309L539.556 256.812C533.225 284.207 525.887 312.923 512.127 336.337C510.624 338.871 509.076 341.297 507.483 343.593C488.418 371.165 464.333 381.82 447.867 387.437C430.256 393.379 414.836 395.691 396.975 398.364L392.836 398.979C390.671 399.31 388.473 399.651 386.233 400.001C367.282 402.954 346.844 406.49 323.758 414.255C305.418 420.419 270.465 434.923 242.474 462.838C240.009 465.288 237.501 467.934 235.037 470.699C225.64 481.193 217.519 492.312 209.662 503.076C206.422 507.524 203.355 511.715 200.184 515.9C187.623 532.498 173.318 549.254 153.804 559.436C136.124 568.698 109.712 571.934 90.5771 558.304L90.0612 559.167C98.2294 564.972 107.698 567.765 117.251 568.356L117.242 568.332Z" fill="#29ABE2"/>
<path d="M126.537 567.06C138.237 567.784 150.717 565.418 162.257 559.891C182.159 550.383 196.882 534.71 209.839 519.172C213.724 514.508 217.486 509.778 221.465 504.771C229 495.313 236.786 485.532 245.512 476.206C247.979 473.546 250.47 471.004 252.919 468.633C278.694 443.579 310.044 427.83 331.806 419.031C352.145 410.805 370.043 405.671 385.822 401.139C387.673 400.614 389.503 400.088 391.302 399.572C393.411 398.958 395.478 398.354 397.502 397.759C415.661 392.478 430.948 387.729 448.545 379.125C465.333 370.854 486.857 357.914 504.396 331.201C505.917 328.889 507.414 326.437 508.864 323.9C522.493 299.896 530.269 271.231 537.133 245.937L537.2 245.697C546.204 212.145 554.748 182.121 568.061 154.367C578.144 133.294 590.143 115.57 603.704 101.672C611.181 94.0112 619.303 87.2967 627.871 81.7021C655.159 63.9702 691.85 55.5359 731.213 57.97C768.418 60.2707 805.182 71.3996 836.722 81.6592L837.004 80.6772C805.412 70.4143 768.575 59.2577 731.276 56.9512C691.735 54.5061 654.842 62.986 627.399 80.8361C618.776 86.4622 610.588 93.2308 603.087 100.937C589.438 114.91 577.379 132.735 567.248 153.922C553.887 181.754 545.34 211.836 536.312 245.433L536.245 245.673C529.396 270.898 521.645 299.495 508.087 323.375C506.648 325.901 505.163 328.331 503.654 330.62C486.242 357.144 464.861 369.977 448.181 378.208C430.649 386.781 415.396 391.497 397.278 396.78C395.254 397.375 393.198 397.98 391.089 398.594C389.291 399.11 387.471 399.637 385.609 400.161C369.809 404.692 351.901 409.826 331.508 418.082C309.68 426.925 278.2 442.724 252.314 467.887C249.864 470.269 247.36 472.833 244.883 475.493C236.124 484.852 228.337 494.644 220.79 504.125C216.812 509.12 213.061 513.839 209.166 518.503C196.287 533.953 181.654 549.539 161.914 558.975C140.579 569.184 116.037 568.526 99.3524 557.279L98.8671 558.156C106.74 563.465 116.344 566.453 126.546 567.084L126.537 567.06Z" fill="#29ABE2"/>
<path d="M135.513 565.662C146.94 566.369 159.095 564.32 170.332 559.436C190.567 550.693 206.183 535.517 218.785 521.828C223.608 516.606 228.251 511.245 233.165 505.564C240.184 497.479 247.441 489.108 255.344 481.02C257.881 478.411 260.311 476.016 262.757 473.703C282.715 454.798 308.577 437.687 339.608 422.836C354.149 415.879 367.502 410.278 379.288 405.347C385.28 402.824 390.957 400.456 396.264 398.123C398.242 397.246 400.177 396.389 402.061 395.518C420.797 387.031 434.39 379.585 448.977 369.83C466.411 358.079 484.734 343.686 500.589 318.193C502.024 315.899 503.459 313.443 504.846 310.914C516.938 288.802 524.999 263.001 532.117 240.234C532.734 238.25 533.348 236.301 533.952 234.362C544.517 200.384 554.498 172.459 568.85 146.617C579.858 126.728 592.549 110.058 606.538 97.0703C614.191 89.9548 622.441 83.7246 631.047 78.5391C658.356 62.1567 694.667 54.431 733.3 56.7734L733.593 56.7916C770.054 59.0463 806.33 69.4012 837.494 78.9403L837.745 77.9448C806.54 68.3915 770.202 58.0211 733.657 55.7612L733.363 55.7431C694.563 53.4018 658.07 61.1744 630.608 77.6404C621.938 82.8452 613.653 89.1313 605.945 96.2899C591.878 109.354 579.129 126.114 568.062 146.092C553.663 172.012 543.668 200.006 533.078 234.041C532.474 235.979 531.86 237.928 531.243 239.912C524.149 262.635 516.102 288.378 504.058 310.388C502.682 312.906 501.26 315.34 499.825 317.622C484.086 342.948 465.851 357.277 448.505 368.965C433.961 378.699 420.411 386.124 401.73 394.579C399.837 395.438 397.911 396.307 395.934 397.173C390.637 399.506 384.981 401.876 378.98 404.387C367.192 409.329 353.829 414.93 339.266 421.908C308.149 436.789 282.21 453.953 262.164 472.923C259.717 475.247 257.276 477.653 254.728 480.273C246.813 488.395 239.545 496.766 232.514 504.873C227.601 510.531 222.948 515.891 218.158 521.092C205.613 534.715 190.085 549.804 170.023 558.488C148.955 567.621 124.668 566.746 108.147 556.253L107.672 557.142C115.593 562.176 125.279 565.029 135.534 565.664L135.513 565.662Z" fill="#29ABE2"/>
<path d="M144.578 564.388C155.629 565.071 167.337 563.285 178.401 558.983C198.955 551.016 214.875 537.066 227.736 524.451C233.746 518.57 239.551 512.433 245.706 505.91C251.928 499.311 258.363 492.503 265.18 485.813C267.744 483.287 270.168 480.984 272.599 478.752C291.742 461.121 316.222 444.076 347.424 426.644C355.091 422.365 362.272 418.463 369.223 414.697C381.365 408.103 391.853 402.407 401.231 396.653C403.088 395.524 404.893 394.392 406.634 393.268C421.565 383.732 433.96 374.249 449.412 360.538C462.623 348.734 480.707 332.583 496.785 305.186C498.147 302.888 499.507 300.451 500.84 297.93C511.302 278.042 518.964 256.319 526.363 235.3C527.829 231.137 529.271 227.031 530.717 223.03C543.847 186.177 555.486 161.016 569.652 138.87C581.575 120.177 594.936 104.57 609.374 92.4703C617.214 85.901 625.572 80.1423 634.225 75.3781C669.262 56.1265 708.581 53.9908 735.39 55.5788C735.62 55.5931 735.85 55.6073 736.081 55.6215C771.725 57.8257 806.097 67.0054 838.258 76.2227L838.509 75.2271C806.09 65.9358 771.439 56.6692 735.453 54.5484C708.53 52.9533 669.041 55.1134 633.82 74.4581C625.122 79.2545 616.71 85.0447 608.825 91.6578C594.31 103.823 580.87 119.494 568.9 138.277C554.688 160.49 543.013 185.73 529.857 222.663C528.41 226.676 526.969 230.77 525.491 234.944C518.106 255.917 510.467 277.595 500.031 297.415C498.71 299.913 497.36 302.352 496.009 304.639C480.013 331.901 461.985 347.986 448.831 359.735C433.422 373.414 421.061 382.876 406.173 392.391C404.443 393.505 402.628 394.636 400.781 395.765C391.426 401.497 380.949 407.183 368.818 413.777C361.866 417.543 354.675 421.444 347.008 425.723C315.741 443.186 291.206 460.274 272.006 477.96C269.575 480.204 267.139 482.529 264.565 485.054C257.748 491.745 251.301 498.575 245.067 505.185C238.924 511.685 233.13 517.823 227.131 523.693C214.348 536.232 198.518 550.105 178.114 558.024C156.997 566.248 133.543 565.17 116.914 555.228L116.468 556.141C124.59 560.99 134.302 563.764 144.588 564.4L144.578 564.388Z" fill="#29ABE2"/>
<path d="M153.729 563.115C164.381 563.774 175.62 562.261 186.47 558.539C207.536 551.312 224.376 537.942 236.686 527.106C244.302 520.406 251.643 513.237 259.42 505.641C264.456 500.722 269.648 495.663 274.995 490.636C277.607 488.183 280.037 485.951 282.419 483.82C305.916 462.786 332.318 445.255 355.219 430.459C374.232 418.166 392.194 406.563 406.176 395.202C407.881 393.82 409.566 392.413 411.176 391.025C426.276 378.083 438.073 364.82 449.817 351.229L452.423 348.194C464.316 334.403 479.12 317.236 492.95 292.187C494.227 289.895 495.514 287.453 496.794 284.941C505.479 267.778 512.627 249.429 519.54 231.68C522.242 224.712 524.814 218.142 527.442 211.692C540.983 178.212 554.637 152.606 570.414 131.106C583.218 113.629 597.271 99.0761 612.19 87.8776C620.207 81.8422 628.682 76.5672 637.384 72.2127C665.126 58.3672 699.731 52.2095 737.459 54.3798C772.653 56.3934 806.937 64.9517 839.013 73.5129L839.242 72.5161C807.125 63.9407 772.799 55.3798 737.522 53.3611C699.648 51.1701 664.893 57.365 637.01 71.2947C628.254 75.6691 619.735 80.9762 611.674 87.0438C596.678 98.3073 582.558 112.914 569.706 130.481C553.873 152.047 540.183 177.72 526.604 211.292C523.965 217.753 521.403 224.334 518.69 231.302C511.78 249.016 504.643 267.343 495.993 284.461C494.713 286.973 493.428 289.392 492.162 291.673C478.369 316.631 463.61 333.755 451.75 347.514L449.145 350.537C437.424 364.095 425.66 377.336 410.605 390.223C409.005 391.611 407.32 393.018 405.616 394.388C391.679 405.706 373.75 417.299 354.748 429.57C331.815 444.387 305.379 461.939 281.838 483.017C279.444 485.17 277.014 487.402 274.392 489.843C269.034 494.869 263.831 499.952 258.806 504.859C251.03 512.432 243.7 519.602 236.106 526.279C223.862 537.074 207.11 550.367 186.205 557.546C165.053 564.815 142.429 563.567 125.681 554.199L125.246 555.113C133.6 559.79 143.391 562.464 153.719 563.103L153.729 563.115Z" fill="#29ABE2"/>
<path d="M163.018 561.774C173.325 562.411 184.125 561.196 194.549 558.075C211.333 553.082 227.088 544.341 245.645 529.741C255.481 522.005 264.949 513.433 274.973 504.349C278.215 501.412 281.5 498.443 284.839 495.453C287.566 493.019 289.991 490.867 292.28 488.882C311.614 472.076 332.774 456.522 351.455 442.802C355.42 439.898 359.286 437.057 363.033 434.268C385.536 417.576 399.922 405.473 411.14 393.755C412.702 392.12 414.246 390.449 415.748 388.776C428.463 374.617 437.85 360.543 448.71 344.236L450.241 341.925C452.28 338.878 454.399 335.732 456.609 332.475C466.537 317.807 477.785 301.175 489.165 279.194C490.357 276.92 491.581 274.474 492.809 271.959C499.402 258.351 505.414 244.103 511.228 230.331C515.663 219.832 519.851 209.911 524.226 200.373C538.339 169.392 553.712 144.206 571.224 123.382C584.858 107.107 599.602 93.6319 615.034 83.3019C623.217 77.8229 631.809 73.0316 640.581 69.0766C668.311 56.6017 702.538 51.1295 739.567 53.2101C774.114 55.1372 808.011 62.9859 839.795 70.8318L840.015 69.8227C808.19 61.9627 774.208 54.132 739.62 52.1907C702.465 50.0907 668.089 55.6002 640.24 68.1258C631.424 72.113 622.789 76.9248 614.552 82.4353C599.053 92.8077 584.242 106.349 570.541 122.689C552.972 143.591 537.541 168.854 523.381 199.926C518.994 209.486 514.815 219.42 510.381 229.918C504.567 243.69 498.566 257.927 491.975 271.5C490.758 274.005 489.536 276.428 488.354 278.702C476.989 300.626 465.763 317.236 455.857 331.871C453.636 335.139 451.518 338.273 449.489 341.332L447.958 343.643C437.111 359.916 427.747 373.957 415.087 388.073C413.596 389.735 412.064 391.395 410.502 393.019C399.329 404.693 384.976 416.775 362.518 433.422C358.781 436.213 354.904 439.053 350.949 441.969C332.258 455.689 311.075 471.264 291.719 488.092C289.43 490.077 286.994 492.228 284.268 494.662C280.929 497.64 277.654 500.622 274.402 503.559C264.378 512.631 254.921 521.204 245.118 528.918C226.671 543.443 211.002 552.143 194.336 557.098C173.489 563.339 151.12 561.886 134.486 553.211L134.081 554.15C142.577 558.569 152.543 561.137 163.039 561.786L163.018 561.774Z" fill="#29ABE2"/>
<path d="M172.457 560.533C182.282 561.141 192.541 560.183 202.635 557.623C219.575 553.348 236.095 545.328 254.592 532.375C267.648 523.246 280.167 512.585 293.441 501.297L294.672 500.257C297.125 498.166 299.611 496.053 302.107 493.942C313.943 483.97 326.176 474.198 337.999 464.76C349.647 455.451 360.663 446.661 370.826 438.062C390.863 421.114 405.242 406.558 416.062 392.271C417.504 390.373 418.917 388.438 420.267 386.511C430.78 371.565 438.57 356.288 446.803 340.121C448.061 337.642 449.34 335.141 450.643 332.607C454.207 325.645 458.139 318.346 462.307 310.62C469.267 297.709 477.163 283.089 485.337 266.186C486.434 263.918 487.558 261.559 488.77 258.961C492.702 250.465 496.585 241.733 500.346 233.285C506.98 218.331 513.845 202.881 520.958 189.015C535.864 159.837 552.553 135.814 571.993 115.609C586.424 100.557 601.86 88.1357 617.847 78.6884C626.196 73.7543 634.906 69.4467 643.736 65.9021C671.433 54.8197 705.293 50.0104 741.633 52.002C775.449 53.8607 809.044 60.9702 840.546 68.1013L840.756 67.0916C809.211 59.9695 775.552 52.8676 741.696 50.9832C705.231 48.9723 671.254 53.7976 643.428 64.9301C634.565 68.496 625.811 72.8356 617.419 77.7903C601.355 87.2794 585.853 99.7551 571.355 114.861C551.858 135.155 535.101 159.256 520.137 188.523C513.012 202.4 506.146 217.885 499.501 232.837C495.75 241.298 491.867 250.029 487.935 258.514C486.724 261.1 485.611 263.46 484.515 265.705C476.331 282.596 468.457 297.206 461.498 310.105C457.329 317.831 453.386 325.141 449.822 332.114C448.519 334.649 447.239 337.161 445.982 339.628C437.761 355.762 430.005 371.006 419.527 385.884C418.178 387.811 416.765 389.746 415.356 391.623C404.571 405.854 390.237 420.355 370.255 437.26C360.104 445.836 349.109 454.628 337.452 463.925C325.617 473.373 313.384 483.145 301.548 493.128C299.04 495.251 296.565 497.353 294.102 499.443L292.88 500.495C279.629 511.762 267.11 522.411 254.099 531.508C235.69 544.397 219.278 552.377 202.434 556.623C181.604 561.901 160.034 560.288 143.26 552.185L142.876 553.126C151.697 557.379 161.826 559.876 172.457 560.533Z" fill="#29ABE2"/>
<path d="M182.185 559.252C191.518 559.829 201.191 559.148 210.692 557.179C228.085 553.571 244.87 546.533 263.53 535.019C278.037 526.061 291.79 515.337 304.485 505.07C306.954 503.073 309.444 501.054 311.936 499.011L315.524 496.084C337.372 478.248 359.983 459.797 378.619 441.879C397.031 424.167 410.902 407.477 420.996 390.809C422.306 388.658 423.578 386.459 424.798 384.245C433.827 367.964 440.165 351.505 446.869 334.058C448.235 330.505 449.613 326.929 451.026 323.298C458.112 305.107 466.935 285.536 477.148 262.867L481.511 253.177C482.594 250.803 483.657 248.394 484.743 245.974C495.058 222.672 505.738 198.567 517.692 177.679C533.425 150.075 551.44 127.226 572.764 107.835C587.95 94.0037 604.067 82.6468 620.662 74.0854C629.167 69.6839 637.994 65.8601 646.904 62.7271C674.946 52.8746 707.515 48.8688 743.713 50.7934C776.755 52.5694 810.069 58.9643 841.31 65.3704L841.488 64.3703C810.215 57.9507 776.912 51.5565 743.765 49.774C707.453 47.8307 674.778 51.8532 646.628 61.7455C637.685 64.8997 628.816 68.7325 620.279 73.1436C603.607 81.7583 587.424 93.1576 572.171 107.043C550.77 126.499 532.687 149.425 516.905 177.131C504.928 198.076 494.236 222.191 483.908 245.527C482.823 247.947 481.761 250.334 480.677 252.719L476.314 262.408C466.08 285.076 457.257 304.659 450.168 322.884C448.755 326.516 447.367 330.091 446.001 333.644C439.31 351.046 432.994 367.494 423.99 383.707C422.782 385.899 421.51 388.098 420.211 390.237C410.154 406.815 396.35 423.451 378.005 441.097C359.392 458.982 336.814 477.412 314.966 495.247L311.389 498.176C308.887 500.206 306.406 502.237 303.949 504.223C291.276 514.468 277.544 525.183 263.082 534.108C244.519 545.581 227.821 552.567 210.534 556.159C190.062 560.413 168.746 558.595 152.025 551.169L151.671 552.123C160.769 556.161 171.239 558.575 182.174 559.251L182.185 559.252Z" fill="#29ABE2"/>
<path d="M192.182 558.072C200.876 558.61 209.84 558.164 218.762 556.717C236.402 553.88 253.979 547.646 272.481 537.657C285.381 530.703 298.671 521.879 314.322 509.877C316.684 508.071 319.126 506.165 321.778 504.074C348.774 482.734 369.922 463.634 386.426 445.677C403.47 427.137 416.755 408.179 425.931 389.351C427.099 386.959 428.241 384.473 429.33 381.996C437.234 364.03 442.348 345.938 447.78 326.784C448.978 322.547 450.176 318.298 451.42 314.005C458.225 290.509 466.826 266.357 477.707 240.185C478.706 237.806 479.706 235.416 480.728 233.004C492.185 205.844 503.217 184.051 514.457 166.361C530.817 140.527 550.702 118.224 573.556 100.101C589.446 87.4754 606.254 77.1724 623.499 69.4995C632.137 65.6641 641.082 62.3124 650.094 59.5808C678.027 51.1395 710.23 47.785 745.812 49.6367C778.104 51.2966 809.793 56.7658 842.084 62.6907L842.252 61.6784C809.919 55.7394 778.219 50.2811 745.865 48.6057C710.188 46.7598 677.89 50.12 649.849 58.6012C640.816 61.343 631.829 64.7037 623.167 68.5726C605.847 76.2756 588.984 86.6101 573.028 99.2901C550.085 117.488 530.132 139.869 513.714 165.804C502.439 183.538 491.382 205.4 479.901 232.604C478.879 235.005 477.879 237.418 476.88 239.797C465.965 266.002 457.36 290.2 450.543 313.73C449.3 318.023 448.089 322.295 446.892 326.52C441.473 345.639 436.371 363.697 428.503 381.596C427.425 384.063 426.285 386.525 425.118 388.905C415.989 407.644 402.762 426.513 385.784 444.998C369.315 462.911 348.211 481.978 321.249 503.275C318.606 505.377 316.155 507.271 313.804 509.078C298.196 521.048 284.941 529.839 272.084 536.772C253.669 546.697 236.189 552.902 218.644 555.734C198.284 559.03 177.745 557.063 160.81 550.193L160.488 551.161C170.119 555.069 180.92 557.41 192.19 558.107L192.182 558.072Z" fill="#29ABE2"/>
<mask id="mask1_1693_860" style="mask-type:luminance" maskUnits="userSpaceOnUse" x="168" y="10" width="678" height="586">
<path d="M845.184 50.5508L202.538 10.8107L168.816 556.138L811.462 595.878L845.184 50.5508Z" fill="white"/>
</mask>
<g mask="url(#mask1_1693_860)">
<path d="M202.672 556.95C210.56 557.438 218.669 557.219 226.835 556.26C245.018 554.165 262.868 548.947 281.415 540.285C295.371 533.769 309.347 525.406 324.152 514.688C326.596 512.91 329.12 511.033 331.614 509.13C355.947 490.541 377.599 469.927 394.225 449.479C410.26 429.75 422.572 409.012 430.85 387.885C431.875 385.24 432.896 382.503 433.845 379.737C440.757 359.793 444.76 339.772 449.005 318.57C449.92 313.967 450.848 309.341 451.807 304.705C457.82 275.477 464.842 250.856 473.897 227.185C474.802 224.789 475.749 222.407 476.706 220.014C486.532 195.438 498.146 173.576 511.186 155.022C528.435 130.44 549.676 109.336 574.321 92.3354C590.885 80.8899 608.373 71.6632 626.319 64.8937C635.072 61.5883 644.122 58.7429 653.246 56.4017C681.01 49.3445 712.845 46.6646 747.875 48.424C779.311 49.9961 810.738 54.775 842.833 59.9557L842.98 58.9421C810.854 53.7479 779.406 48.9677 747.929 47.3815C712.825 45.629 680.895 48.3147 653.046 55.3899C643.891 57.7291 634.808 60.5957 626.023 63.9108C608.023 70.7002 590.458 79.9803 573.84 91.4572C549.105 108.533 527.787 129.702 510.467 154.396C497.371 173.017 485.731 194.959 475.859 219.602C474.89 222.005 473.964 224.4 473.048 226.796C463.969 250.511 456.933 275.202 450.895 304.486C449.935 309.133 449.008 313.748 448.092 318.363C443.871 339.52 439.869 359.517 432.984 379.394C432.036 382.136 431.025 384.874 430.002 387.484C421.772 408.521 409.498 429.145 393.542 448.798C376.972 469.191 355.375 489.762 331.097 508.296C328.615 510.188 326.101 512.066 323.647 513.832C308.897 524.518 294.975 532.861 281.074 539.346C262.593 547.954 244.838 553.166 226.75 555.255C206.576 557.587 186.814 555.47 169.593 549.141L169.292 550.11C179.664 553.935 190.941 556.225 202.672 556.95Z" fill="#29ABE2"/>
</g>
<mask id="mask2_1693_860" style="mask-type:luminance" maskUnits="userSpaceOnUse" x="177" y="11" width="669" height="582">
<path d="M845.184 50.5508L210.582 11.3082L177.044 553.671L811.645 592.914L845.184 50.5508Z" fill="white"/>
</mask>
<g mask="url(#mask2_1693_860)">
<path d="M214.18 555.899C221.02 556.322 227.961 556.298 234.909 555.81C253.4 554.524 272.057 550.193 290.371 542.923C305.149 537.061 319.82 529.183 333.992 519.507C336.463 517.812 338.971 516.026 341.46 514.193C364.726 497.061 385.67 475.997 402.025 453.289C417.118 432.304 428.476 409.822 435.769 386.426C436.673 383.542 437.552 380.54 438.371 377.499C444.36 355.301 447.397 332.036 450.324 309.521C450.94 304.829 451.546 300.125 452.195 295.412C455.479 271.21 460.169 242.633 470.098 214.194C470.942 211.77 471.815 209.372 472.695 207.044C481.503 183.812 493.367 162.5 507.945 143.703C526.124 120.26 548.73 100.367 575.119 84.5902C592.303 74.3221 610.484 66.1377 629.15 60.3191C637.995 57.554 647.174 55.1814 656.429 53.2667C684.301 47.5178 714.904 45.5519 749.98 47.2445C780.443 48.7331 810.398 52.6541 843.623 57.2654L843.76 56.2395C810.525 51.6276 780.518 47.6919 750.034 46.2135C714.895 44.5054 684.218 46.4783 656.282 52.2466C646.984 54.1586 637.784 56.5415 628.917 59.3169C610.176 65.1657 591.931 73.3694 574.691 83.6806C548.193 99.5205 525.519 119.49 507.251 143.032C492.604 161.906 480.682 183.319 471.847 206.655C470.956 208.982 470.081 211.403 469.237 213.838C459.282 242.357 454.566 271.014 451.279 295.274C450.64 299.988 450.033 304.703 449.417 309.395C446.492 331.864 443.467 355.106 437.484 377.223C436.666 380.241 435.798 383.232 434.895 386.105C427.63 409.386 416.331 431.767 401.297 452.651C385.009 475.293 364.144 496.281 340.945 513.348C338.466 515.17 335.959 516.944 333.5 518.628C319.392 528.273 304.786 536.132 290.073 541.963C271.835 549.191 253.262 553.516 234.857 554.784C215.279 556.153 195.749 553.853 178.375 548.13L178.104 549.113C189.398 552.833 201.621 555.122 214.18 555.899Z" fill="#29ABE2"/>
</g>
<mask id="mask3_1693_860" style="mask-type:luminance" maskUnits="userSpaceOnUse" x="185" y="11" width="661" height="582">
<path d="M845.184 50.5508L218.627 11.8056L185.088 554.169L811.645 592.914L845.184 50.5508Z" fill="white"/>
</mask>
<g mask="url(#mask3_1693_860)">
<path d="M227.256 555.114C267.562 557.606 308.465 547.038 343.811 524.308C391.081 493.924 426.396 443.126 440.686 384.962C447.511 357.225 449.574 327.951 451.587 299.638C454.105 264.197 456.707 227.565 468.674 194.045C492.619 126.995 553.668 75.2665 631.981 55.6812C702.231 38.1191 774.497 46.4578 844.391 54.5452L844.496 53.5175C774.539 45.4377 702.191 37.0707 631.79 54.6932C595.564 63.7606 561.588 80.4978 533.536 103.098C502.883 127.804 480.171 159.114 467.824 193.679C455.795 227.346 453.199 264.06 450.676 299.582C448.665 327.848 446.595 357.076 439.797 384.709C425.575 442.622 390.422 493.186 343.361 523.42C296.299 553.677 239.377 562.302 187.165 547.114L186.915 548.098C200.136 551.949 213.671 554.274 227.267 555.114L227.256 555.114Z" fill="#29ABE2"/>
</g>
</svg>
