<svg width="1200" height="699" viewBox="0 0 1200 699" fill="none" xmlns="http://www.w3.org/2000/svg">
<g clip-path="url(#clip0_1619_577)">
<path d="M0 699V0H1200V699H0Z" fill="url(#paint0_radial_1619_577)"/>
<mask id="mask0_1619_577" style="mask-type:luminance" maskUnits="userSpaceOnUse" x="0" y="0" width="1200" height="699">
<path d="M1200 699L1200 0L0 0L0 699L1200 699Z" fill="white"/>
</mask>
<g mask="url(#mask0_1619_577)">
<path d="M-49.6623 -150.834C-58.2273 -133.57 -65.8413 -116.056 -71.8773 -98.1774C-77.9613 -80.318 -82.6063 -62.1719 -85.9353 -43.9176C-92.5273 -7.39219 -93.6353 29.6172 -89.3853 66.0264C-85.2153 102.441 -76.1083 138.263 -62.7383 172.755C-49.3343 207.246 -31.8283 240.437 -11.0073 271.911C9.84367 303.377 33.9507 333.164 60.7367 360.968C74.0997 374.894 88.1827 388.285 102.791 401.22C106.471 404.431 110.088 407.691 113.874 410.811C117.643 413.943 121.315 417.158 125.178 420.204C132.764 426.419 140.519 432.477 148.373 438.434C179.835 462.222 213.44 483.84 248.62 503.275C283.792 522.724 320.567 540.003 358.593 554.893C396.571 569.862 435.73 582.554 475.74 592.707C495.728 597.835 515.938 602.296 536.292 606.181C556.645 610.076 577.168 613.293 597.796 615.88C680.288 626.172 764.649 626.209 847.063 614.39C888.245 608.453 928.911 599.536 968.343 587.369C1007.76 575.197 1045.94 559.744 1081.92 540.829C1117.92 521.96 1151.63 499.482 1181.85 473.544C1212.08 447.619 1238.75 418.224 1261.1 386.063C1244.11 420.643 1220.85 453.15 1192.9 482.436C1178.96 497.12 1163.76 510.937 1147.65 523.938C1131.51 536.907 1114.35 548.942 1096.49 560.157C1060.7 582.52 1021.83 601.196 981.211 616.255C940.58 631.325 898.183 642.777 854.967 650.818C768.486 666.934 678.891 669.454 591.095 660.201C547.171 655.582 503.693 647.839 461.084 637.43C439.79 632.188 418.705 626.291 397.908 619.693C377.136 613.038 356.632 605.75 336.457 597.821C316.308 589.848 296.434 581.327 277 572.069C257.586 562.785 238.524 552.925 219.946 542.398C182.799 521.346 147.406 497.858 114.561 471.861C106.36 465.353 98.2627 458.746 90.3587 451.961C86.3537 448.619 82.5367 445.104 78.6317 441.673C74.7107 438.254 70.9567 434.69 67.1467 431.177C51.9797 417.06 37.5637 402.329 23.8617 387.11C-3.47634 356.632 -27.7713 324.033 -48.1133 289.621C-68.4753 255.233 -84.9363 219.052 -96.5423 181.719C-108.132 144.396 -114.785 105.901 -115.693 67.3746C-115.942 57.7459 -115.728 48.1154 -115.284 38.5111C-115.043 33.709 -114.615 28.913 -114.288 24.1231C-113.781 19.3376 -113.288 14.5573 -112.667 9.79098C-110.093 -9.26813 -106.143 -28.1473 -100.557 -46.6061C-95.0513 -65.078 -87.9683 -83.1288 -79.5063 -100.585C-70.9643 -118.019 -60.9573 -134.823 -49.6623 -150.834Z" fill="url(#paint1_linear_1619_577)"/>
</g>
<mask id="mask1_1619_577" style="mask-type:luminance" maskUnits="userSpaceOnUse" x="0" y="0" width="1200" height="699">
<path d="M1200 699L1200 0L0 0L0 699L1200 699Z" fill="white"/>
</mask>
<g mask="url(#mask1_1619_577)">
<path d="M-336.877 -171.42C-333.507 -122.864 -325.611 -74.9824 -312.611 -28.3844C-299.721 18.2223 -282.04 63.5332 -260.207 107.058C-216.531 194.133 -156.311 274.006 -84.1608 343.832C-11.9288 413.612 72.2702 473.467 164.685 520.378C210.905 543.799 259.134 564.055 308.924 580.549C333.822 588.781 359.071 596.162 384.647 602.488C410.206 608.859 436.056 614.29 462.131 618.65C488.191 623.063 514.471 626.478 540.854 628.799C567.228 631.192 593.708 632.483 620.179 632.674C673.119 633.122 726.049 629.068 777.979 620.409C790.958 618.23 803.881 615.792 816.711 613.021C823.103 611.566 829.564 610.309 835.906 608.69C842.267 607.13 848.67 605.673 854.966 603.92C880.27 597.234 905.212 589.456 929.596 580.47C953.983 571.496 977.856 561.407 1001.03 550.161C1024.24 538.975 1046.7 526.567 1068.37 513.136C1111.67 486.241 1151.69 455.089 1187.39 420.267C1223.08 385.438 1254.25 346.842 1280.37 305.509C1306.48 264.167 1327.44 220.034 1342.88 174.125C1358.39 128.214 1368.2 80.56 1373.33 32.1306C1377.06 80.6709 1374.03 129.922 1364.39 178.492C1354.69 227.047 1338.23 274.898 1315.21 320.524C1292.19 366.143 1262.71 409.576 1227.39 449.301C1209.75 469.178 1190.65 488.109 1170.35 506.054C1150 523.949 1128.45 540.869 1105.75 556.572C1060.44 588.092 1010.57 614.708 957.955 636.195C931.625 646.906 904.608 656.37 877.039 664.417C870.18 666.525 863.214 668.328 856.278 670.229L851.072 671.642C849.336 672.112 847.58 672.518 845.835 672.959L835.341 675.54C821.323 678.9 807.195 681.898 792.994 684.611C764.591 690.036 735.835 693.99 706.949 696.722C678.056 699.437 649.01 700.743 619.984 700.861C590.955 700.921 561.948 699.69 533.095 697.295C504.252 694.821 475.564 691.198 447.135 686.411C418.72 681.57 390.562 675.633 362.798 668.56C335.051 661.442 307.66 653.305 280.79 644.054C227.054 625.541 175.312 602.851 126.277 576.496C28.1772 523.809 -59.2048 456.632 -131.272 379.013C-167.331 340.223 -199.5 298.769 -227.217 255.258C-254.936 211.754 -278.2 166.177 -296.274 119.202C-314.351 72.2366 -327.221 23.8693 -334.224 -24.9445C-337.729 -49.3483 -339.687 -73.8649 -340.211 -98.3272C-340.656 -122.795 -339.589 -147.215 -336.877 -171.42Z" fill="url(#paint2_linear_1619_577)"/>
</g>
<mask id="mask2_1619_577" style="mask-type:luminance" maskUnits="userSpaceOnUse" x="0" y="0" width="1200" height="699">
<path d="M1200 699L1200 0L0 0L0 699L1200 699Z" fill="white"/>
</mask>
<g mask="url(#mask2_1619_577)">
<path d="M566.255 -460.227C544.726 -460.684 523.29 -460.279 502.057 -458.458C480.828 -456.684 459.835 -453.635 439.22 -449.482C397.999 -441.114 358.322 -428.122 321.292 -411.018C284.226 -393.975 249.642 -373.157 218.068 -349.385C186.508 -325.584 157.867 -298.952 132.292 -270.277C106.735 -241.582 84.1819 -210.879 64.7399 -178.752C54.9819 -162.703 46.0599 -146.272 37.8209 -129.587C35.7959 -125.401 33.6939 -121.247 31.8049 -117.012C29.8959 -112.784 27.8649 -108.603 26.0829 -104.332C22.3359 -95.8554 18.8199 -87.3005 15.4469 -78.7046C2.01788 -44.2981 -8.30412 -8.96885 -15.7201 26.8165C-23.1531 62.6009 -27.6821 98.8685 -29.2081 135.253C-30.8361 171.628 -29.6051 208.106 -25.3621 244.32C-23.3011 262.433 -20.4481 280.475 -16.9321 298.417C-13.4271 316.362 -9.13711 334.191 -4.14111 351.869C15.8979 422.541 47.5159 490.878 90.9819 553.19C112.734 584.314 137.454 613.904 165.161 641.272C192.867 668.632 223.587 693.752 257.155 715.794C290.683 737.87 327.176 756.731 366.033 771.473C404.88 786.228 446.073 796.796 488.58 802.834C445.517 802.047 402.306 795.412 360.746 783.761C339.939 777.982 319.577 770.858 299.741 762.692C279.925 754.485 260.718 745.104 242.119 734.848C204.964 714.254 170.565 689.781 139.347 662.536C108.112 635.285 80.0519 605.245 55.3049 573.262C5.75389 509.268 -30.5411 437.652 -53.6731 363.075C-65.2561 325.767 -73.3591 287.649 -78.3051 249.235C-80.7361 230.022 -82.3921 210.732 -83.1971 191.413C-83.9321 172.092 -83.8951 152.751 -83.0561 133.437C-82.1601 114.126 -80.5761 94.8327 -78.0491 75.6189C-75.4851 56.4121 -72.1791 37.2735 -67.9841 18.2773C-59.5911 -19.7081 -47.9561 -57.1876 -32.7011 -93.5444C-28.8751 -102.628 -24.9041 -111.665 -20.6731 -120.613C-18.6311 -125.111 -16.3341 -129.521 -14.1591 -133.972C-12.0051 -138.43 -9.63211 -142.808 -7.33511 -147.212C1.94889 -164.793 12.1659 -181.997 23.1689 -198.805C45.2429 -232.383 70.7089 -264.293 99.5809 -293.681C128.42 -323.077 160.624 -349.986 195.875 -373.396C231.12 -396.789 269.46 -416.623 309.989 -431.816C320.11 -435.631 330.407 -439.071 340.762 -442.317C345.947 -443.923 351.195 -445.377 356.399 -446.909C361.666 -448.294 366.922 -449.689 372.212 -450.975C393.397 -456.042 414.907 -459.928 436.585 -462.331C458.248 -464.803 480.055 -465.841 501.749 -465.539C523.449 -465.165 545.03 -463.365 566.255 -460.227Z" fill="url(#paint3_linear_1619_577)"/>
</g>
<mask id="mask3_1619_577" style="mask-type:luminance" maskUnits="userSpaceOnUse" x="0" y="0" width="1200" height="699">
<path d="M1200 699L1200 0L0 0L0 699L1200 699Z" fill="white"/>
</mask>
<g mask="url(#mask3_1619_577)">
<path d="M480.307 -700.564C430.06 -679.614 382.229 -655.25 337.674 -627.235C293.069 -599.306 251.635 -567.983 213.656 -533.966C137.673 -465.916 75.539 -387.171 28.539 -302.533C-18.38 -217.846 -50.28 -127.192 -65.364 -34.7425C-72.865 11.4806 -76.255 58.1415 -75.069 104.656C-74.458 127.91 -72.813 151.129 -69.926 174.216C-67.093 197.306 -63.155 220.282 -57.994 243.035C-52.897 265.797 -46.657 288.363 -39.217 310.601C-31.859 332.859 -23.291 354.79 -13.56 376.3C5.83105 419.345 29.995 460.69 58.668 499.499C65.851 509.192 73.286 518.744 81.04 528.095C84.983 532.726 88.74 537.486 92.838 542.016C96.88 546.583 100.828 551.22 105.051 555.663C121.64 573.647 139.252 590.928 157.934 607.305C176.606 623.688 196.267 639.236 216.893 653.783C237.472 668.385 259.063 681.919 281.442 694.427C326.224 719.407 374.291 740.13 424.628 755.972C474.97 771.811 527.611 782.57 581.26 788.209C634.916 793.841 689.599 794.253 744.097 789.53C798.623 784.868 852.857 774.926 906.158 760.907C856.064 782.144 802.679 798.173 747.537 808.591C692.387 818.957 635.447 823.581 578.404 822.058C521.372 820.535 464.233 812.959 408.838 799.262C381.132 792.438 353.881 784.072 327.227 774.366C300.605 764.596 274.569 753.494 249.392 741.003C198.949 716.133 152.002 685.736 109.461 651.185C88.217 633.881 68.04 615.551 49.156 596.244C44.346 591.479 39.82 586.515 35.2 581.611L31.747 577.924C30.597 576.695 29.508 575.425 28.385 574.176L21.709 566.647C12.884 556.555 4.40104 546.238 -3.80496 535.754C-20.218 514.787 -35.205 492.982 -48.943 470.612C-62.666 448.231 -74.952 425.196 -85.969 401.732C-96.926 378.245 -106.506 354.29 -114.791 330.024C-122.992 305.736 -129.913 281.142 -135.504 256.321C-141.031 231.492 -145.3 206.458 -148.215 181.318C-151.078 156.175 -152.724 130.938 -152.993 105.705C-153.52 55.2372 -148.866 4.81653 -139.309 -44.7863C-120.23 -144.009 -81.758 -239.988 -26.46 -327.483C1.15904 -371.243 33.063 -412.853 68.82 -451.63C104.569 -490.405 144.19 -526.35 187.24 -558.616C230.279 -590.881 276.76 -619.456 325.915 -643.445C350.489 -655.442 375.762 -666.228 401.517 -675.832C427.304 -685.378 453.612 -693.678 480.307 -700.564Z" fill="url(#paint4_linear_1619_577)"/>
</g>
<mask id="mask4_1619_577" style="mask-type:luminance" maskUnits="userSpaceOnUse" x="0" y="0" width="1200" height="699">
<path d="M1200 699L1200 0L0 0L0 699L1200 699Z" fill="white"/>
</mask>
<g mask="url(#mask4_1619_577)">
<path d="M-258.994 823.643C-252.9 826.55 -246.691 829.269 -240.529 832.049C-234.406 834.888 -228.133 837.478 -221.901 840.123C-218.772 841.422 -215.694 842.807 -212.528 844.038L-203.077 847.802C-199.918 849.038 -196.802 850.349 -193.612 851.522L-184.06 855.068C-158.598 864.516 -132.639 872.833 -106.347 880.106C-53.7382 894.6 0.260857 904.78 54.7639 910.703C163.792 922.589 274.659 917.859 381.633 898.283C408.387 893.409 434.902 887.589 461.093 880.852C487.286 874.125 513.193 866.574 538.679 858.078C589.632 841.055 639.092 820.694 686.236 796.873C733.367 773.051 778.332 746.006 820.25 715.76C841.199 700.632 861.429 684.755 880.783 668.107C900.155 651.478 918.698 634.122 936.282 616.057C953.89 598.012 970.575 579.281 986.213 559.915C1001.88 540.572 1016.5 520.588 1029.97 500.04C1056.96 458.967 1079.29 415.584 1096.34 370.659C1113.43 325.744 1124.92 279.227 1130.76 232.152C1133.66 208.611 1135.02 184.922 1134.93 161.228C1135 158.265 1134.84 155.306 1134.8 152.344L1134.6 143.458C1134.35 137.537 1134 131.619 1133.69 125.697C1133.18 119.789 1132.76 113.871 1132.17 107.964L1131.17 99.115C1130.82 96.166 1130.54 93.2084 1130.07 90.2717C1126.86 66.7198 1122.24 43.2928 1116.03 20.162C1109.84 -2.97137 1102.08 -25.7955 1092.94 -48.2168C1083.81 -70.6459 1072.99 -92.5596 1060.89 -113.937C1048.78 -135.32 1035.2 -156.091 1020.31 -176.161C990.586 -216.333 955.44 -253.581 915.983 -287.19C876.5 -320.794 832.656 -350.651 785.83 -376.744C834.911 -354.027 881.282 -326.411 923.527 -294.364C944.675 -278.366 964.716 -261.202 983.632 -243.096C1002.53 -224.976 1020.18 -205.817 1036.56 -185.827C1069.22 -145.786 1096.6 -102.27 1117.52 -56.3689C1128.03 -33.439 1136.88 -9.91159 1144.19 13.9898C1151.49 37.893 1157.25 62.1824 1161.26 86.7103C1161.83 89.7676 1162.22 92.8467 1162.67 95.9188L1163.99 105.14C1164.78 111.297 1165.41 117.469 1166.12 123.636C1166.63 129.816 1167.18 135.997 1167.61 142.184L1168.09 151.473C1168.23 154.57 1168.47 157.666 1168.5 160.766C1169.24 185.559 1168.32 210.396 1165.87 235.118C1161.02 284.581 1149.54 333.526 1132.43 380.873C1115.3 428.231 1092.25 473.913 1064.32 517.113C1050.33 538.708 1035.12 559.681 1018.83 579.978C1002.5 600.253 985.107 619.859 966.722 638.724C948.312 657.569 928.938 675.688 908.662 692.991C888.369 710.278 867.223 726.791 845.267 742.424C801.339 773.673 754.3 801.509 704.947 825.621C655.591 849.727 604.027 870.309 550.864 886.898C524.292 895.206 497.364 902.628 470.12 908.996C442.874 915.353 415.348 920.75 387.628 925.163C359.915 929.611 331.977 932.917 303.956 935.264C275.934 937.605 247.811 938.948 219.688 939.148C191.568 939.358 163.448 938.603 135.444 936.656C107.444 934.708 79.5509 931.738 51.9019 927.606C-3.38715 919.326 -57.7491 906.616 -109.986 889.256C-136.113 880.607 -161.688 870.767 -186.587 859.839C-211.48 848.894 -235.649 836.783 -258.994 823.643Z" fill="url(#paint5_linear_1619_577)"/>
</g>
</g>
<defs>
<radialGradient id="paint0_radial_1619_577" cx="0" cy="0" r="1" gradientUnits="userSpaceOnUse" gradientTransform="translate(547.022 -97.8062) scale(1045.34 913.362)">
<stop offset="0.0427" stop-color="white"/>
<stop offset="0.2834" stop-color="#FDFEFF"/>
<stop offset="0.4162" stop-color="#F5FAFD"/>
<stop offset="0.5228" stop-color="#E7F3FA"/>
<stop offset="0.6155" stop-color="#D3E9F6"/>
<stop offset="0.6991" stop-color="#BADCF1"/>
<stop offset="0.7762" stop-color="#9BCDEB"/>
<stop offset="0.8484" stop-color="#76BAE4"/>
<stop offset="0.9166" stop-color="#4BA4DC"/>
<stop offset="0.9793" stop-color="#1B8DD2"/>
<stop offset="1" stop-color="#0A84CF"/>
</radialGradient>
<linearGradient id="paint1_linear_1619_577" x1="-201.206" y1="66.98" x2="1073.44" y2="776.827" gradientUnits="userSpaceOnUse">
<stop stop-color="#89CFF0" stop-opacity="0"/>
<stop offset="0.4076" stop-color="#89CFF0" stop-opacity="0.2"/>
<stop offset="0.9855" stop-color="#005DAB"/>
</linearGradient>
<linearGradient id="paint2_linear_1619_577" x1="-296.871" y1="331.757" x2="1409.34" y2="13.828" gradientUnits="userSpaceOnUse">
<stop stop-color="#89CFF0" stop-opacity="0"/>
<stop offset="0.6548" stop-color="#89CFF0" stop-opacity="0.2"/>
<stop offset="0.6761" stop-color="#7BC3E9" stop-opacity="0.2494"/>
<stop offset="0.7498" stop-color="#4F9FD3" stop-opacity="0.4202"/>
<stop offset="0.821" stop-color="#2D82C2" stop-opacity="0.5852"/>
<stop offset="0.8881" stop-color="#146EB5" stop-opacity="0.7408"/>
<stop offset="0.9496" stop-color="#0561AE" stop-opacity="0.8831"/>
<stop offset="1" stop-color="#005DAB"/>
</linearGradient>
<linearGradient id="paint3_linear_1619_577" x1="278.317" y1="-501.221" x2="200.139" y2="809.214" gradientUnits="userSpaceOnUse">
<stop stop-color="#89CFF0" stop-opacity="0"/>
<stop offset="0.2411" stop-color="#89CFF0" stop-opacity="0.2"/>
<stop offset="0.3595" stop-color="#7AC2E8" stop-opacity="0.3272"/>
<stop offset="0.5879" stop-color="#52A1D4" stop-opacity="0.5727"/>
<stop offset="0.9008" stop-color="#126CB4" stop-opacity="0.909"/>
<stop offset="0.9855" stop-color="#005DAB"/>
</linearGradient>
<linearGradient id="paint4_linear_1619_577" x1="-38.4742" y1="-479.337" x2="699.495" y2="910.43" gradientUnits="userSpaceOnUse">
<stop stop-color="#89CFF0" stop-opacity="0"/>
<stop offset="0.6548" stop-color="#89CFF0" stop-opacity="0.2"/>
<stop offset="0.6761" stop-color="#7BC3E9" stop-opacity="0.2494"/>
<stop offset="0.7498" stop-color="#4F9FD3" stop-opacity="0.4202"/>
<stop offset="0.821" stop-color="#2D82C2" stop-opacity="0.5852"/>
<stop offset="0.8881" stop-color="#146EB5" stop-opacity="0.7408"/>
<stop offset="0.9496" stop-color="#0561AE" stop-opacity="0.8831"/>
<stop offset="1" stop-color="#005DAB"/>
</linearGradient>
<linearGradient id="paint5_linear_1619_577" x1="259.904" y1="1022.15" x2="723.227" y2="-415.262" gradientUnits="userSpaceOnUse">
<stop stop-color="#005DAB"/>
<stop offset="0.0993" stop-color="#0561AE" stop-opacity="0.8831"/>
<stop offset="0.2201" stop-color="#146EB5" stop-opacity="0.7408"/>
<stop offset="0.3523" stop-color="#2D82C2" stop-opacity="0.5852"/>
<stop offset="0.4924" stop-color="#4F9FD3" stop-opacity="0.4202"/>
<stop offset="0.6374" stop-color="#7BC3E9" stop-opacity="0.2494"/>
<stop offset="0.6793" stop-color="#89CFF0" stop-opacity="0.2"/>
<stop offset="1" stop-color="#89CFF0" stop-opacity="0"/>
</linearGradient>
<clipPath id="clip0_1619_577">
<rect width="1200" height="699" fill="white"/>
</clipPath>
</defs>
</svg>
