<svg xmlns="http://www.w3.org/2000/svg" xmlns:xlink="http://www.w3.org/1999/xlink" width="500" zoomAndPan="magnify" viewBox="0 0 375 305.25" height="407" preserveAspectRatio="xMidYMid meet" version="1.0"><defs><clipPath id="adf0e23e7c"><path d="M 0.460938 122 L 48 122 L 48 217 L 0.460938 217 Z M 0.460938 122 " clip-rule="nonzero"/></clipPath><clipPath id="9e0fd0eacb"><path d="M 327 122 L 374.539062 122 L 374.539062 217 L 327 217 Z M 327 122 " clip-rule="nonzero"/></clipPath><clipPath id="3b0d62de73"><path d="M 164 257 L 223 257 L 223 303.753906 L 164 303.753906 Z M 164 257 " clip-rule="nonzero"/></clipPath><clipPath id="9731ff3d0e"><path d="M 164.683594 135.261719 L 210.320312 135.261719 L 210.320312 180.898438 L 164.683594 180.898438 Z M 164.683594 135.261719 " clip-rule="nonzero"/></clipPath></defs><path fill="#3e4756" d="M 240.105469 169.503906 C 233.648438 169.503906 228.414062 164.269531 228.414062 157.816406 C 228.414062 151.359375 233.648438 146.125 240.105469 146.125 C 246.558594 146.125 251.796875 151.359375 251.796875 157.816406 C 251.796875 164.269531 246.558594 169.503906 240.105469 169.503906 Z M 187.5 207.433594 C 171.359375 207.433594 158.273438 196.96875 158.273438 184.054688 L 216.726562 184.054688 C 216.726562 196.96875 203.640625 207.433594 187.5 207.433594 Z M 134.894531 169.503906 C 128.441406 169.503906 123.203125 164.269531 123.203125 157.816406 C 123.203125 151.359375 128.441406 146.125 134.894531 146.125 C 141.351562 146.125 146.585938 151.359375 146.585938 157.816406 C 146.585938 164.269531 141.351562 169.503906 134.894531 169.503906 Z M 234.261719 99.367188 L 140.738281 99.367188 C 121.371094 99.367188 103.835938 107.214844 91.144531 119.910156 C 78.449219 132.601562 70.601562 150.136719 70.601562 169.503906 C 70.601562 208.246094 102 239.644531 140.738281 239.644531 L 234.261719 239.644531 C 253.628906 239.644531 271.164062 231.796875 283.855469 219.101562 C 296.550781 206.410156 304.398438 188.875 304.398438 169.503906 C 304.398438 130.765625 273 99.367188 234.261719 99.367188 " fill-opacity="1" fill-rule="nonzero"/><path fill="#3e4756" d="M 187.5 286.40625 L 152.429688 286.40625 C 136.652344 286.40625 121.339844 283.316406 106.925781 277.21875 C 93.003906 271.328125 80.503906 262.898438 69.769531 252.164062 C 59.035156 241.433594 50.605469 228.929688 44.71875 215.011719 C 38.621094 200.59375 35.53125 185.285156 35.53125 169.503906 C 35.53125 153.726562 38.621094 138.417969 44.71875 124 C 50.605469 110.078125 59.035156 97.578125 69.769531 86.84375 C 80.503906 76.109375 93.003906 67.683594 106.925781 61.792969 C 121.339844 55.695312 136.652344 52.605469 152.429688 52.605469 L 222.570312 52.605469 C 238.347656 52.605469 253.660156 55.695312 268.074219 61.792969 C 281.996094 67.683594 294.496094 76.109375 305.230469 86.84375 C 315.964844 97.578125 324.394531 110.078125 330.28125 124 C 336.378906 138.417969 339.46875 153.726562 339.46875 169.503906 L 327.78125 169.503906 C 327.78125 111.492188 280.582031 64.296875 222.570312 64.296875 L 152.429688 64.296875 C 94.417969 64.296875 47.21875 111.492188 47.21875 169.503906 C 47.21875 227.519531 94.417969 274.714844 152.429688 274.714844 L 187.5 274.714844 L 187.5 286.40625 " fill-opacity="1" fill-rule="nonzero"/><g clip-path="url(#adf0e23e7c)"><path fill="#3e4756" d="M 47.21875 216.265625 C 21.394531 216.265625 0.460938 195.332031 0.460938 169.503906 C 0.460938 143.679688 21.394531 122.746094 47.21875 122.746094 L 47.21875 216.265625 " fill-opacity="1" fill-rule="nonzero"/></g><g clip-path="url(#9e0fd0eacb)"><path fill="#3e4756" d="M 327.78125 216.265625 C 353.605469 216.265625 374.539062 195.332031 374.539062 169.503906 C 374.539062 143.679688 353.605469 122.746094 327.78125 122.746094 L 327.78125 216.265625 " fill-opacity="1" fill-rule="nonzero"/></g><path fill="#3e4756" d="M 216.726562 105.210938 C 216.726562 118.121094 203.640625 128.589844 187.5 128.589844 C 171.359375 128.589844 158.273438 118.121094 158.273438 105.210938 C 158.273438 92.296875 171.359375 81.832031 187.5 81.832031 C 203.640625 81.832031 216.726562 92.296875 216.726562 105.210938 " fill-opacity="1" fill-rule="nonzero"/><path fill="#3e4756" d="M 205.035156 17.535156 C 205.035156 27.21875 197.183594 35.070312 187.5 35.070312 C 177.816406 35.070312 169.964844 27.21875 169.964844 17.535156 C 169.964844 7.851562 177.816406 0 187.5 0 C 197.183594 0 205.035156 7.851562 205.035156 17.535156 " fill-opacity="1" fill-rule="nonzero"/><g clip-path="url(#3b0d62de73)"><path fill="#3e4756" d="M 222.570312 280.5625 C 222.570312 293.472656 209.484375 303.941406 193.34375 303.941406 C 177.203125 303.941406 164.121094 293.472656 164.121094 280.5625 C 164.121094 267.648438 177.203125 257.179688 193.34375 257.179688 C 209.484375 257.179688 222.570312 267.648438 222.570312 280.5625 " fill-opacity="1" fill-rule="nonzero"/></g><path fill="#3e4756" d="M 193.34375 122.992188 L 181.65625 122.992188 L 181.65625 17.535156 L 193.34375 17.535156 L 193.34375 122.992188 " fill-opacity="1" fill-rule="nonzero"/><g clip-path="url(#9731ff3d0e)"><path fill="#3e4756" d="M 187.496094 180.886719 C 174.890625 180.886719 164.683594 170.609375 164.683594 158.074219 C 164.683594 145.542969 174.890625 135.261719 187.496094 135.261719 C 200.097656 135.261719 210.308594 145.472656 210.308594 158.074219 C 210.308594 170.679688 200.027344 180.886719 187.496094 180.886719 Z M 187.496094 136.671875 C 175.667969 136.671875 166.089844 146.246094 166.089844 158.074219 C 166.089844 169.902344 175.667969 179.480469 187.496094 179.480469 C 199.324219 179.480469 208.898438 169.902344 208.898438 158.074219 C 208.898438 146.246094 199.253906 136.671875 187.496094 136.671875 Z M 187.496094 136.671875 " fill-opacity="1" fill-rule="nonzero"/></g></svg>