<svg xmlns="http://www.w3.org/2000/svg" xmlns:xlink="http://www.w3.org/1999/xlink" width="323" zoomAndPan="magnify" viewBox="0 0 242.25 74.249996" height="99" preserveAspectRatio="xMidYMid meet" version="1.0"><defs><g/><clipPath id="3d6a2bb5f7"><path d="M 172.835938 17 L 176 17 L 176 23 L 172.835938 23 Z M 172.835938 17 " clip-rule="nonzero"/></clipPath><clipPath id="4fdc5194e4"><path d="M 181 11.308594 L 184 11.308594 L 184 14 L 181 14 Z M 181 11.308594 " clip-rule="nonzero"/></clipPath><clipPath id="229ba6c9e0"><path d="M 181 24 L 185 24 L 185 26.898438 L 181 26.898438 Z M 181 24 " clip-rule="nonzero"/></clipPath><clipPath id="eb8eb77ee1"><path d="M 59.847656 40.433594 L 61.332031 40.433594 L 61.332031 41.917969 L 59.847656 41.917969 Z M 59.847656 40.433594 " clip-rule="nonzero"/></clipPath></defs><g fill="#000000" fill-opacity="1"><g transform="translate(46.647147, 47.215569)"><g><path d="M 10.9375 0.359375 C 9.113281 0.359375 7.570312 0.0976562 6.3125 -0.421875 C 5.0625 -0.941406 4.054688 -1.640625 3.296875 -2.515625 C 2.535156 -3.390625 1.984375 -4.375 1.640625 -5.46875 C 1.304688 -6.570312 1.140625 -7.691406 1.140625 -8.828125 C 1.140625 -10.691406 1.570312 -12.320312 2.4375 -13.71875 C 3.3125 -15.113281 4.535156 -16.203125 6.109375 -16.984375 C 7.679688 -17.773438 9.519531 -18.171875 11.625 -18.171875 C 13.238281 -18.171875 14.664062 -18.054688 15.90625 -17.828125 C 17.15625 -17.597656 18.398438 -17.234375 19.640625 -16.734375 L 18.78125 -14.578125 C 17.5 -15.117188 16.3125 -15.472656 15.21875 -15.640625 C 14.132812 -15.816406 12.914062 -15.90625 11.5625 -15.90625 C 10.125 -15.90625 8.796875 -15.664062 7.578125 -15.1875 C 6.359375 -14.707031 5.378906 -13.9375 4.640625 -12.875 C 3.898438 -11.820312 3.53125 -10.445312 3.53125 -8.75 C 3.53125 -7.945312 3.648438 -7.140625 3.890625 -6.328125 C 4.128906 -5.523438 4.53125 -4.796875 5.09375 -4.140625 C 5.664062 -3.492188 6.421875 -2.96875 7.359375 -2.5625 C 8.304688 -2.15625 9.5 -1.953125 10.9375 -1.953125 C 12.570312 -1.953125 13.859375 -2.15625 14.796875 -2.5625 C 15.734375 -2.96875 16.394531 -3.5 16.78125 -4.15625 C 17.175781 -4.820312 17.375 -5.570312 17.375 -6.40625 C 17.375 -7.144531 17.203125 -7.878906 16.859375 -8.609375 C 16.515625 -9.335938 15.804688 -9.875 14.734375 -10.21875 C 14.835938 -9.914062 14.910156 -9.613281 14.953125 -9.3125 C 15.003906 -9.007812 15.03125 -8.726562 15.03125 -8.46875 C 15.03125 -7.132812 14.660156 -6.207031 13.921875 -5.6875 C 13.179688 -5.164062 12.273438 -4.90625 11.203125 -4.90625 C 10.023438 -4.90625 9.054688 -5.226562 8.296875 -5.875 C 7.535156 -6.53125 7.15625 -7.488281 7.15625 -8.75 C 7.15625 -9.96875 7.628906 -10.921875 8.578125 -11.609375 C 9.523438 -12.296875 10.757812 -12.640625 12.28125 -12.640625 C 13.9375 -12.640625 15.3125 -12.363281 16.40625 -11.8125 C 17.507812 -11.257812 18.335938 -10.523438 18.890625 -9.609375 C 19.453125 -8.691406 19.734375 -7.675781 19.734375 -6.5625 C 19.734375 -5.238281 19.4375 -4.050781 18.84375 -3 C 18.257812 -1.957031 17.316406 -1.132812 16.015625 -0.53125 C 14.722656 0.0625 13.03125 0.359375 10.9375 0.359375 Z M 9.46875 -8.6875 C 9.46875 -8.25 9.585938 -7.867188 9.828125 -7.546875 C 10.066406 -7.222656 10.503906 -7.0625 11.140625 -7.0625 C 11.703125 -7.0625 12.117188 -7.210938 12.390625 -7.515625 C 12.671875 -7.816406 12.8125 -8.21875 12.8125 -8.71875 C 12.8125 -8.957031 12.78125 -9.242188 12.71875 -9.578125 C 12.664062 -9.921875 12.550781 -10.234375 12.375 -10.515625 L 12.09375 -10.515625 C 11.257812 -10.515625 10.613281 -10.351562 10.15625 -10.03125 C 9.695312 -9.707031 9.46875 -9.257812 9.46875 -8.6875 Z M 9.46875 -8.6875 "/></g></g></g><g fill="#000000" fill-opacity="1"><g transform="translate(67.261876, 47.215569)"><g><path d="M 10.65625 0.359375 C 8.757812 0.359375 7.097656 0.0234375 5.671875 -0.640625 C 4.242188 -1.304688 3.132812 -2.273438 2.34375 -3.546875 C 1.5625 -4.816406 1.171875 -6.367188 1.171875 -8.203125 C 1.171875 -10.398438 1.878906 -12.054688 3.296875 -13.171875 C 4.710938 -14.296875 6.78125 -14.859375 9.5 -14.859375 L 10.0625 -14.859375 C 10 -15.890625 9.679688 -16.644531 9.109375 -17.125 C 8.546875 -17.601562 7.851562 -17.84375 7.03125 -17.84375 C 5.375 -17.84375 4.546875 -17.195312 4.546875 -15.90625 C 4.546875 -15.582031 4.585938 -15.269531 4.671875 -14.96875 L 2.390625 -14.578125 C 2.234375 -15.054688 2.15625 -15.597656 2.15625 -16.203125 C 2.15625 -17.441406 2.566406 -18.382812 3.390625 -19.03125 C 4.222656 -19.675781 5.378906 -20 6.859375 -20 C 8.617188 -20 9.976562 -19.488281 10.9375 -18.46875 C 11.894531 -17.457031 12.375 -15.984375 12.375 -14.046875 L 12.375 -12.703125 L 9.96875 -12.703125 C 8.632812 -12.703125 7.570312 -12.601562 6.78125 -12.40625 C 5.988281 -12.21875 5.335938 -11.90625 4.828125 -11.46875 C 4.421875 -11.09375 4.109375 -10.632812 3.890625 -10.09375 C 3.671875 -9.550781 3.5625 -8.875 3.5625 -8.0625 C 3.5625 -6.175781 4.195312 -4.6875 5.46875 -3.59375 C 6.75 -2.5 8.476562 -1.953125 10.65625 -1.953125 C 12.894531 -1.953125 14.644531 -2.4375 15.90625 -3.40625 C 17.175781 -4.382812 17.8125 -5.742188 17.8125 -7.484375 C 17.8125 -8.222656 17.664062 -8.75 17.375 -9.0625 C 17.09375 -9.382812 16.722656 -9.546875 16.265625 -9.546875 C 15.878906 -9.546875 15.570312 -9.492188 15.34375 -9.390625 C 15.113281 -9.296875 14.867188 -9.148438 14.609375 -8.953125 L 12.28125 -9.671875 C 12.613281 -11.804688 13.117188 -13.539062 13.796875 -14.875 C 14.484375 -16.21875 15.273438 -17.265625 16.171875 -18.015625 C 17.066406 -18.765625 17.984375 -19.28125 18.921875 -19.5625 C 19.859375 -19.851562 20.75 -20 21.59375 -20 C 23.445312 -20 24.992188 -19.566406 26.234375 -18.703125 C 27.472656 -17.847656 28.394531 -16.671875 29 -15.171875 C 29.613281 -13.679688 29.921875 -11.988281 29.921875 -10.09375 C 29.921875 -7.851562 29.53125 -5.976562 28.75 -4.46875 C 27.96875 -2.96875 26.878906 -1.832031 25.484375 -1.0625 C 24.085938 -0.289062 22.5 0.09375 20.71875 0.09375 C 20.101562 0.09375 19.515625 0.0625 18.953125 0 L 19.046875 -2.21875 C 19.203125 -2.195312 19.398438 -2.179688 19.640625 -2.171875 C 19.878906 -2.160156 20.140625 -2.15625 20.421875 -2.15625 C 22.859375 -2.15625 24.644531 -2.875 25.78125 -4.3125 C 26.914062 -5.75 27.484375 -7.675781 27.484375 -10.09375 C 27.484375 -11.550781 27.253906 -12.847656 26.796875 -13.984375 C 26.335938 -15.117188 25.664062 -16.015625 24.78125 -16.671875 C 23.894531 -17.335938 22.789062 -17.671875 21.46875 -17.671875 C 20.550781 -17.671875 19.671875 -17.484375 18.828125 -17.109375 C 17.992188 -16.742188 17.234375 -16.101562 16.546875 -15.1875 C 15.859375 -14.269531 15.296875 -13.007812 14.859375 -11.40625 C 15.316406 -11.601562 15.84375 -11.703125 16.4375 -11.703125 C 17.59375 -11.703125 18.503906 -11.316406 19.171875 -10.546875 C 19.847656 -9.785156 20.1875 -8.6875 20.1875 -7.25 C 20.1875 -6.332031 20.015625 -5.425781 19.671875 -4.53125 C 19.335938 -3.644531 18.800781 -2.832031 18.0625 -2.09375 C 17.320312 -1.351562 16.34375 -0.757812 15.125 -0.3125 C 13.90625 0.132812 12.414062 0.359375 10.65625 0.359375 Z M 10.65625 0.359375 "/></g></g></g><g fill="#000000" fill-opacity="1"><g transform="translate(98.428995, 47.215569)"><g><path d="M 12.84375 6.890625 C 10.707031 6.890625 8.878906 6.601562 7.359375 6.03125 C 5.847656 5.46875 4.617188 4.6875 3.671875 3.6875 C 2.722656 2.6875 2.03125 1.546875 1.59375 0.265625 C 1.164062 -1.003906 0.953125 -2.332031 0.953125 -3.71875 C 0.953125 -5.507812 1.304688 -7.128906 2.015625 -8.578125 C 2.722656 -10.023438 3.796875 -11.226562 5.234375 -12.1875 C 5.203125 -12.382812 5.1875 -12.582031 5.1875 -12.78125 C 5.1875 -12.988281 5.1875 -13.203125 5.1875 -13.421875 C 5.1875 -15.410156 5.671875 -17.003906 6.640625 -18.203125 C 7.617188 -19.398438 8.929688 -20 10.578125 -20 C 11.492188 -20 12.222656 -19.8125 12.765625 -19.4375 C 13.316406 -19.070312 13.734375 -18.703125 14.015625 -18.328125 C 14.429688 -18.828125 14.960938 -19.226562 15.609375 -19.53125 C 16.265625 -19.84375 17 -20 17.8125 -20 C 19.414062 -20 20.710938 -19.488281 21.703125 -18.46875 C 22.703125 -17.457031 23.203125 -15.984375 23.203125 -14.046875 L 23.203125 -12.703125 L 18.859375 -12.703125 C 16.046875 -12.703125 13.753906 -12.578125 11.984375 -12.328125 C 10.222656 -12.078125 8.753906 -11.648438 7.578125 -11.046875 C 7.878906 -9.191406 8.601562 -7.804688 9.75 -6.890625 C 10.894531 -5.972656 12.394531 -5.515625 14.25 -5.515625 C 16.289062 -5.515625 17.851562 -5.875 18.9375 -6.59375 C 20.03125 -7.3125 20.65625 -8.476562 20.8125 -10.09375 L 23.125 -9.96875 C 22.914062 -7.851562 22.113281 -6.203125 20.71875 -5.015625 C 19.320312 -3.828125 17.238281 -3.234375 14.46875 -3.234375 C 12.644531 -3.234375 11.128906 -3.507812 9.921875 -4.0625 C 8.710938 -4.625 7.757812 -5.390625 7.0625 -6.359375 C 6.363281 -7.328125 5.875 -8.441406 5.59375 -9.703125 C 4.125 -8.367188 3.390625 -6.34375 3.390625 -3.625 C 3.390625 -1.125 4.203125 0.859375 5.828125 2.328125 C 7.453125 3.804688 9.789062 4.546875 12.84375 4.546875 C 15.863281 4.546875 18.128906 3.988281 19.640625 2.875 C 21.160156 1.757812 21.921875 0.242188 21.921875 -1.671875 C 21.921875 -1.773438 21.921875 -1.898438 21.921875 -2.046875 C 21.921875 -2.203125 21.910156 -2.359375 21.890625 -2.515625 L 24.28125 -2.640625 C 24.300781 -2.453125 24.316406 -2.273438 24.328125 -2.109375 C 24.335938 -1.941406 24.34375 -1.738281 24.34375 -1.5 C 24.34375 0.351562 23.851562 1.898438 22.875 3.140625 C 21.894531 4.378906 20.535156 5.3125 18.796875 5.9375 C 17.066406 6.570312 15.082031 6.890625 12.84375 6.890625 Z M 10.625 -17.84375 C 9.59375 -17.84375 8.800781 -17.445312 8.25 -16.65625 C 7.695312 -15.875 7.421875 -14.765625 7.421875 -13.328125 C 8.617188 -13.867188 10.019531 -14.257812 11.625 -14.5 C 13.238281 -14.738281 15.15625 -14.859375 17.375 -14.859375 L 20.90625 -14.859375 C 20.863281 -15.890625 20.546875 -16.644531 19.953125 -17.125 C 19.367188 -17.601562 18.628906 -17.84375 17.734375 -17.84375 C 17.046875 -17.84375 16.46875 -17.675781 16 -17.34375 C 15.53125 -17.019531 15.226562 -16.46875 15.09375 -15.6875 L 12.90625 -15.6875 C 12.882812 -16.289062 12.6875 -16.800781 12.3125 -17.21875 C 11.945312 -17.632812 11.382812 -17.84375 10.625 -17.84375 Z M 10.625 -17.84375 "/></g></g></g><g fill="#f5a711" fill-opacity="1"><g transform="translate(123.194249, 47.215569)"><g><path d="M 3 0 L 3 -22.875 L 19.34375 -22.875 L 19.34375 -19.40625 L 6.859375 -19.40625 L 6.859375 -13.203125 L 18.03125 -13.203125 L 18.03125 -9.765625 L 6.859375 -9.765625 L 6.859375 -3.46875 L 19.734375 -3.46875 L 19.734375 0 Z M 3 0 "/></g></g></g><g fill="#f5a711" fill-opacity="1"><g transform="translate(144.625721, 47.215569)"><g><path d="M 12.375 -22.875 C 14.644531 -22.875 16.675781 -22.382812 18.46875 -21.40625 C 20.269531 -20.425781 21.675781 -19.0625 22.6875 -17.3125 C 23.695312 -15.570312 24.203125 -13.613281 24.203125 -11.4375 C 24.203125 -9.257812 23.691406 -7.300781 22.671875 -5.5625 C 21.648438 -3.832031 20.234375 -2.472656 18.421875 -1.484375 C 16.617188 -0.492188 14.570312 0 12.28125 0 L 3 0 L 3 -22.875 Z M 12.484375 -3.46875 C 13.941406 -3.46875 15.269531 -3.800781 16.46875 -4.46875 C 17.664062 -5.144531 18.609375 -6.085938 19.296875 -7.296875 C 19.984375 -8.503906 20.328125 -9.875 20.328125 -11.40625 C 20.328125 -12.925781 19.972656 -14.296875 19.265625 -15.515625 C 18.554688 -16.734375 17.585938 -17.6875 16.359375 -18.375 C 15.140625 -19.0625 13.789062 -19.40625 12.3125 -19.40625 L 6.859375 -19.40625 L 6.859375 -3.46875 Z M 12.484375 -3.46875 "/></g></g></g><g fill="#f5a711" fill-opacity="1"><g transform="translate(169.944916, 47.215569)"><g><path d="M 6.40625 -9.375 C 6.40625 -7.457031 6.945312 -5.945312 8.03125 -4.84375 C 9.125 -3.75 10.597656 -3.203125 12.453125 -3.203125 C 14.273438 -3.203125 15.71875 -3.742188 16.78125 -4.828125 C 17.851562 -5.921875 18.390625 -7.4375 18.390625 -9.375 L 18.390625 -22.875 L 22.25 -22.875 L 22.25 -9.375 C 22.25 -7.394531 21.851562 -5.679688 21.0625 -4.234375 C 20.28125 -2.785156 19.148438 -1.664062 17.671875 -0.875 C 16.191406 -0.09375 14.453125 0.296875 12.453125 0.296875 C 10.421875 0.296875 8.660156 -0.09375 7.171875 -0.875 C 5.679688 -1.664062 4.535156 -2.785156 3.734375 -4.234375 C 2.941406 -5.679688 2.546875 -7.394531 2.546875 -9.375 L 2.546875 -22.875 L 6.40625 -22.875 Z M 6.40625 -9.375 "/></g></g></g><path fill="#f5a711" d="M 185.015625 19.917969 C 184.6875 19.917969 184.421875 19.652344 184.421875 19.324219 C 184.421875 18.996094 184.6875 18.730469 185.015625 18.730469 C 185.34375 18.730469 185.609375 18.996094 185.609375 19.324219 C 185.609375 19.652344 185.34375 19.917969 185.015625 19.917969 Z M 182.34375 21.847656 C 181.523438 21.847656 180.859375 21.316406 180.859375 20.660156 L 183.828125 20.660156 C 183.828125 21.316406 183.164062 21.847656 182.34375 21.847656 Z M 179.667969 19.917969 C 179.34375 19.917969 179.074219 19.652344 179.074219 19.324219 C 179.074219 18.996094 179.34375 18.730469 179.667969 18.730469 C 179.996094 18.730469 180.265625 18.996094 180.265625 19.324219 C 180.265625 19.652344 179.996094 19.917969 179.667969 19.917969 Z M 184.71875 16.355469 L 179.96875 16.355469 C 178.984375 16.355469 178.09375 16.753906 177.445312 17.398438 C 176.800781 18.042969 176.402344 18.933594 176.402344 19.917969 C 176.402344 21.886719 178 23.484375 179.96875 23.484375 L 184.71875 23.484375 C 185.703125 23.484375 186.59375 23.082031 187.238281 22.4375 C 187.882812 21.792969 188.28125 20.902344 188.28125 19.917969 C 188.28125 17.953125 186.6875 16.355469 184.71875 16.355469 " fill-opacity="1" fill-rule="nonzero"/><path fill="#f5a711" d="M 182.34375 25.859375 L 180.5625 25.859375 C 179.757812 25.859375 178.980469 25.703125 178.25 25.390625 C 177.542969 25.09375 176.90625 24.664062 176.359375 24.117188 C 175.816406 23.574219 175.386719 22.9375 175.089844 22.230469 C 174.777344 21.5 174.621094 20.722656 174.621094 19.917969 C 174.621094 19.117188 174.777344 18.339844 175.089844 17.609375 C 175.386719 16.898438 175.816406 16.265625 176.359375 15.71875 C 176.90625 15.175781 177.542969 14.746094 178.25 14.445312 C 178.980469 14.136719 179.757812 13.980469 180.5625 13.980469 L 184.125 13.980469 C 184.925781 13.980469 185.703125 14.136719 186.4375 14.445312 C 187.144531 14.746094 187.777344 15.175781 188.324219 15.71875 C 188.867188 16.265625 189.296875 16.898438 189.597656 17.609375 C 189.90625 18.339844 190.0625 19.117188 190.0625 19.917969 L 189.46875 19.917969 C 189.46875 16.972656 187.070312 14.574219 184.125 14.574219 L 180.5625 14.574219 C 177.613281 14.574219 175.214844 16.972656 175.214844 19.917969 C 175.214844 22.867188 177.613281 25.265625 180.5625 25.265625 L 182.34375 25.265625 L 182.34375 25.859375 " fill-opacity="1" fill-rule="nonzero"/><g clip-path="url(#3d6a2bb5f7)"><path fill="#f5a711" d="M 175.214844 22.296875 C 173.902344 22.296875 172.839844 21.230469 172.839844 19.917969 C 172.839844 18.605469 173.902344 17.542969 175.214844 17.542969 L 175.214844 22.296875 " fill-opacity="1" fill-rule="nonzero"/></g><path fill="#f5a711" d="M 189.46875 22.296875 C 190.78125 22.296875 191.84375 21.230469 191.84375 19.917969 C 191.84375 18.605469 190.78125 17.542969 189.46875 17.542969 L 189.46875 22.296875 " fill-opacity="1" fill-rule="nonzero"/><path fill="#f5a711" d="M 183.828125 16.652344 C 183.828125 17.308594 183.164062 17.839844 182.34375 17.839844 C 181.523438 17.839844 180.859375 17.308594 180.859375 16.652344 C 180.859375 15.996094 181.523438 15.464844 182.34375 15.464844 C 183.164062 15.464844 183.828125 15.996094 183.828125 16.652344 " fill-opacity="1" fill-rule="nonzero"/><g clip-path="url(#4fdc5194e4)"><path fill="#f5a711" d="M 183.234375 12.199219 C 183.234375 12.691406 182.835938 13.089844 182.34375 13.089844 C 181.851562 13.089844 181.453125 12.691406 181.453125 12.199219 C 181.453125 11.707031 181.851562 11.308594 182.34375 11.308594 C 182.835938 11.308594 183.234375 11.707031 183.234375 12.199219 " fill-opacity="1" fill-rule="nonzero"/></g><g clip-path="url(#229ba6c9e0)"><path fill="#f5a711" d="M 184.125 25.5625 C 184.125 26.21875 183.460938 26.75 182.640625 26.75 C 181.820312 26.75 181.15625 26.21875 181.15625 25.5625 C 181.15625 24.90625 181.820312 24.375 182.640625 24.375 C 183.460938 24.375 184.125 24.90625 184.125 25.5625 " fill-opacity="1" fill-rule="nonzero"/></g><path fill="#f5a711" d="M 182.640625 17.554688 L 182.046875 17.554688 L 182.046875 12.199219 L 182.640625 12.199219 L 182.640625 17.554688 " fill-opacity="1" fill-rule="nonzero"/><g clip-path="url(#eb8eb77ee1)"><path fill="#000000" d="M 60.589844 41.917969 C 60.179688 41.917969 59.847656 41.585938 59.847656 41.175781 C 59.847656 40.769531 60.179688 40.433594 60.589844 40.433594 C 61 40.433594 61.332031 40.765625 61.332031 41.175781 C 61.332031 41.585938 61 41.917969 60.589844 41.917969 Z M 60.589844 40.480469 C 60.207031 40.480469 59.894531 40.792969 59.894531 41.175781 C 59.894531 41.5625 60.207031 41.875 60.589844 41.875 C 60.976562 41.875 61.285156 41.5625 61.285156 41.175781 C 61.285156 40.792969 60.972656 40.480469 60.589844 40.480469 Z M 60.589844 40.480469 " fill-opacity="1" fill-rule="nonzero"/></g></svg>