<svg width="194" height="58" viewBox="0 0 194 58" fill="none" xmlns="http://www.w3.org/2000/svg">
<mask id="mask0_1681_623" style="mask-type:luminance" maskUnits="userSpaceOnUse" x="178" y="0" width="5" height="4">
<path d="M178.332 0.078125H182.332V3.66667H178.332V0.078125Z" fill="white"/>
</mask>
<g mask="url(#mask0_1681_623)">
<path d="M181.313 1.26563C181.313 1.92187 180.781 2.45313 180.125 2.45313C179.469 2.45313 178.938 1.92187 178.938 1.26563C178.938 0.609374 179.469 0.078125 180.125 0.078125C180.781 0.078125 181.313 0.609374 181.313 1.26563Z" fill="#F5A711"/>
</g>
<path d="M13.7813 48.4329C11.349 48.4329 9.29167 48.084 7.61458 47.3913C5.94792 46.6986 4.60417 45.7663 3.59375 44.5996C2.57812 43.4329 1.84375 42.1204 1.38542 40.6621C0.937501 39.1934 0.71875 37.6986 0.71875 36.1829C0.71875 33.6986 1.29167 31.5267 2.44792 29.6621C3.61458 27.8027 5.24479 26.3496 7.34375 25.3079C9.4375 24.2559 11.8906 23.7246 14.6979 23.7246C16.849 23.7246 18.75 23.8809 20.4063 24.1829C22.0729 24.4902 23.7292 24.9746 25.3854 25.6413L24.2396 28.5163C22.5313 27.7975 20.9479 27.3236 19.4896 27.0996C18.0417 26.8652 16.4167 26.7454 14.6146 26.7454C12.6979 26.7454 10.9271 27.0684 9.30208 27.7038C7.67708 28.3444 6.36979 29.3704 5.38542 30.7871C4.39583 32.1934 3.90625 34.0267 3.90625 36.2871C3.90625 37.36 4.0625 38.4329 4.38542 39.5163C4.70312 40.5892 5.23958 41.5579 5.98958 42.4329C6.75 43.2975 7.76042 43.9954 9.01042 44.5371C10.2708 45.0788 11.8646 45.3496 13.7813 45.3496C15.9583 45.3496 17.6771 45.0788 18.9271 44.5371C20.1771 43.9954 21.0573 43.2871 21.5729 42.4121C22.099 41.5267 22.3646 40.5267 22.3646 39.4121C22.3646 38.4277 22.1354 37.4486 21.6771 36.4746C21.2188 35.5059 20.2708 34.7871 18.8438 34.3288C18.9792 34.735 19.0781 35.1361 19.1354 35.5371C19.2031 35.9434 19.2396 36.3184 19.2396 36.6621C19.2396 38.4434 18.7448 39.6777 17.7604 40.3704C16.7708 41.0684 15.5625 41.4121 14.1354 41.4121C12.5625 41.4121 11.2708 40.985 10.2604 40.1204C9.24479 39.2454 8.73958 37.9694 8.73958 36.2871C8.73958 34.6621 9.36979 33.3913 10.6354 32.4746C11.8958 31.5579 13.5417 31.0996 15.5729 31.0996C17.7813 31.0996 19.6146 31.4694 21.0729 32.2038C22.5417 32.9434 23.6458 33.9225 24.3854 35.1413C25.1354 36.3652 25.5104 37.7194 25.5104 39.2038C25.5104 40.9694 25.1146 42.5527 24.3229 43.9538C23.5417 45.3444 22.2865 46.4434 20.5521 47.2454C18.8281 48.0371 16.5729 48.4329 13.7813 48.4329ZM11.8229 36.3704C11.8229 36.9538 11.9792 37.4642 12.3021 37.8913C12.6198 38.3236 13.2031 38.5371 14.0521 38.5371C14.8021 38.5371 15.3542 38.3392 15.7188 37.9329C16.0938 37.5319 16.2813 36.9954 16.2813 36.3288C16.2813 36.0111 16.2396 35.6309 16.1563 35.1829C16.0833 34.7246 15.9323 34.3079 15.6979 33.9329H15.3229C14.2083 33.9329 13.349 34.1517 12.7396 34.5788C12.125 35.0111 11.8229 35.61 11.8229 36.3704Z" fill="black"/>
<path d="M40.8919 48.4329C38.3607 48.4329 36.1471 47.985 34.2461 47.0996C32.3398 46.2142 30.8607 44.9225 29.8086 43.2246C28.7669 41.5319 28.2461 39.4642 28.2461 37.0163C28.2461 34.0892 29.1888 31.8809 31.0794 30.3913C32.9648 28.8913 35.7253 28.1413 39.3503 28.1413H40.1003C40.0169 26.7663 39.5898 25.7611 38.8294 25.1204C38.0794 24.485 37.1523 24.1621 36.0586 24.1621C33.8503 24.1621 32.7461 25.0267 32.7461 26.7454C32.7461 27.1777 32.7982 27.5944 32.9128 27.9954L29.8711 28.5163C29.6628 27.8809 29.5586 27.1569 29.5586 26.3496C29.5586 24.6986 30.1055 23.4434 31.2044 22.5788C32.3138 21.7194 33.8555 21.2871 35.8294 21.2871C38.1732 21.2871 39.9857 21.9694 41.2669 23.3288C42.543 24.6777 43.1836 26.6413 43.1836 29.2246V31.0163H39.9753C38.194 31.0163 36.7773 31.1517 35.7253 31.4121C34.668 31.6621 33.7982 32.0788 33.1211 32.6621C32.5794 33.1621 32.1628 33.7767 31.8711 34.4954C31.5794 35.2194 31.4336 36.1204 31.4336 37.2038C31.4336 39.7194 32.2773 41.7038 33.9753 43.1621C35.6836 44.6204 37.9857 45.3496 40.8919 45.3496C43.8763 45.3496 46.2096 44.7038 47.8919 43.4121C49.5846 42.11 50.4336 40.2975 50.4336 37.9746C50.4336 36.9902 50.2357 36.2871 49.8503 35.8704C49.4753 35.4434 48.9805 35.2246 48.3711 35.2246C47.8555 35.2246 47.444 35.2975 47.1419 35.4329C46.8346 35.5579 46.5065 35.7559 46.1628 36.0163L43.0586 35.0579C43.5013 32.2142 44.1732 29.9017 45.0794 28.1204C45.9961 26.3288 47.0482 24.9329 48.2461 23.9329C49.4388 22.9329 50.6628 22.2454 51.9128 21.8704C53.1628 21.485 54.3503 21.2871 55.4753 21.2871C57.944 21.2871 60.0065 21.8652 61.6628 23.0163C63.3138 24.1569 64.543 25.7246 65.3503 27.7246C66.168 29.7142 66.5794 31.9694 66.5794 34.4954C66.5794 37.485 66.0586 39.985 65.0169 41.9954C63.9753 43.9954 62.5221 45.5111 60.6628 46.5371C58.7982 47.5684 56.6836 48.0788 54.3086 48.0788C53.4857 48.0788 52.7044 48.0371 51.9544 47.9538L52.0794 44.9954C52.2878 45.0267 52.5482 45.0475 52.8711 45.0579C53.1888 45.0736 53.5378 45.0788 53.9128 45.0788C57.1628 45.0788 59.543 44.1204 61.0586 42.2038C62.569 40.2871 63.3294 37.7194 63.3294 34.4954C63.3294 32.5527 63.0221 30.8236 62.4128 29.3079C61.7982 27.7975 60.9023 26.5996 59.7253 25.7246C58.543 24.8392 57.069 24.3913 55.3086 24.3913C54.0846 24.3913 52.9128 24.6413 51.7878 25.1413C50.6732 25.6309 49.6628 26.485 48.7461 27.7038C47.8294 28.9277 47.0794 30.61 46.4961 32.7454C47.1055 32.485 47.8086 32.3496 48.6003 32.3496C50.1419 32.3496 51.3555 32.8652 52.2461 33.8913C53.1471 34.9069 53.6003 36.3704 53.6003 38.2871C53.6003 39.5111 53.3711 40.7194 52.9128 41.9121C52.4648 43.0944 51.7513 44.1777 50.7669 45.1621C49.7773 46.1517 48.4753 46.9434 46.8503 47.5371C45.2253 48.1309 43.2357 48.4329 40.8919 48.4329Z" fill="black"/>
<path d="M85.362 57.1413C82.513 57.1413 80.0755 56.7559 78.0495 55.9954C76.0339 55.2454 74.3932 54.2038 73.1328 52.8704C71.8672 51.5371 70.9453 50.0163 70.362 48.3079C69.7891 46.6152 69.5078 44.8444 69.5078 42.9954C69.5078 40.61 69.9766 38.4486 70.9245 36.5163C71.8672 34.5892 73.2995 32.985 75.2161 31.7038C75.1745 31.4434 75.1536 31.1777 75.1536 30.9121C75.1536 30.6361 75.1536 30.3496 75.1536 30.0579C75.1536 27.4069 75.7995 25.2819 77.0911 23.6829C78.3932 22.0892 80.1432 21.2871 82.3411 21.2871C83.5599 21.2871 84.5339 21.5371 85.2578 22.0371C85.9922 22.5267 86.5495 23.0163 86.9245 23.5163C87.4766 22.8496 88.1849 22.3184 89.0495 21.9121C89.9245 21.4954 90.9036 21.2871 91.987 21.2871C94.1224 21.2871 95.8516 21.9694 97.1745 23.3288C98.5078 24.6777 99.1745 26.6413 99.1745 29.2246V31.0163H93.3828C89.6328 31.0163 86.5755 31.1829 84.2161 31.5163C81.8672 31.8496 79.9089 32.4225 78.3411 33.2246C78.7422 35.6986 79.7057 37.5475 81.237 38.7663C82.763 39.9902 84.763 40.5996 87.237 40.5996C89.9557 40.5996 92.0391 40.1204 93.487 39.1621C94.9453 38.2038 95.7786 36.6517 95.987 34.4954L99.0703 34.6621C98.7891 37.485 97.7214 39.6829 95.862 41.2663C93.9974 42.8496 91.2214 43.6413 87.5286 43.6413C85.0964 43.6413 83.0755 43.2767 81.4661 42.5371C79.8516 41.7871 78.5807 40.7663 77.6536 39.4746C76.7214 38.1829 76.0703 36.6986 75.6953 35.0163C73.737 36.7975 72.7578 39.4954 72.7578 43.1204C72.7578 46.4538 73.8411 49.0996 76.0078 51.0579C78.1745 53.0267 81.2891 54.0163 85.362 54.0163C89.388 54.0163 92.4089 53.2715 94.4245 51.7871C96.4505 50.2975 97.4661 48.2767 97.4661 45.7246C97.4661 45.5892 97.4661 45.4225 97.4661 45.2246C97.4661 45.0163 97.4505 44.8079 97.4245 44.5996L100.612 44.4329C100.638 44.6829 100.659 44.9225 100.674 45.1413C100.685 45.3652 100.695 45.6361 100.695 45.9538C100.695 48.4225 100.039 50.485 98.737 52.1413C97.4297 53.7923 95.6172 55.0371 93.2995 55.8704C90.9922 56.7142 88.3464 57.1413 85.362 57.1413ZM82.4036 24.1621C81.0286 24.1621 79.9714 24.6934 79.237 25.7454C78.4974 26.7871 78.1328 28.2663 78.1328 30.1829C79.7266 29.4642 81.5964 28.9434 83.737 28.6204C85.888 28.3027 88.4453 28.1413 91.4036 28.1413H96.112C96.0547 26.7663 95.6328 25.7611 94.8411 25.1204C94.0599 24.485 93.0755 24.1621 91.8828 24.1621C90.9661 24.1621 90.1953 24.3861 89.5703 24.8288C88.9453 25.2611 88.5391 25.9954 88.362 27.0371H85.4453C85.4141 26.235 85.1536 25.5527 84.6536 24.9954C84.1641 24.4434 83.4141 24.1621 82.4036 24.1621Z" fill="black"/>
<path d="M105.258 47.9531V17.4531H127.049V22.0781H110.404V30.349H125.299V34.9323H110.404V43.3281H127.57V47.9531H105.258Z" fill="#F5A711"/>
<path d="M146.336 17.4531C149.362 17.4531 152.07 18.1094 154.461 19.4115C156.862 20.7188 158.737 22.5365 160.086 24.8698C161.43 27.1927 162.107 29.8021 162.107 32.7031C162.107 35.6094 161.424 38.2188 160.065 40.5365C158.701 42.8438 156.815 44.6563 154.398 45.974C151.992 47.2969 149.263 47.9531 146.211 47.9531H133.836V17.4531H146.336ZM146.482 43.3281C148.424 43.3281 150.195 42.8854 151.794 41.9948C153.388 41.0938 154.648 39.8385 155.565 38.224C156.482 36.6146 156.94 34.7865 156.94 32.7448C156.94 30.7188 156.466 28.8906 155.523 27.2656C154.576 25.6406 153.284 24.3698 151.648 23.4531C150.023 22.5365 148.221 22.0781 146.253 22.0781H138.982V43.3281H146.482Z" fill="#F5A711"/>
<path d="M172.134 35.4531C172.134 38.0104 172.853 40.026 174.301 41.4948C175.759 42.9531 177.723 43.6823 180.197 43.6823C182.624 43.6823 184.551 42.9635 185.967 41.5156C187.395 40.0573 188.113 38.0365 188.113 35.4531V17.4531H193.259V35.4531C193.259 38.0938 192.728 40.3802 191.676 42.3073C190.634 44.2396 189.124 45.7344 187.155 46.7865C185.181 47.8281 182.863 48.349 180.197 48.349C177.488 48.349 175.139 47.8281 173.155 46.7865C171.165 45.7344 169.639 44.2396 168.572 42.3073C167.514 40.3802 166.988 38.0938 166.988 35.4531V17.4531H172.134V35.4531Z" fill="#F5A711"/>
<path d="M183.688 11.5566C183.25 11.5566 182.896 11.2025 182.896 10.765C182.896 10.3275 183.25 9.97331 183.688 9.97331C184.125 9.97331 184.479 10.3275 184.479 10.765C184.479 11.2025 184.125 11.5566 183.688 11.5566ZM180.125 14.1296C179.031 14.1296 178.146 13.4212 178.146 12.5462H182.104C182.104 13.4212 181.219 14.1296 180.125 14.1296ZM176.557 11.5566C176.125 11.5566 175.766 11.2025 175.766 10.765C175.766 10.3275 176.125 9.97331 176.557 9.97331C176.995 9.97331 177.354 10.3275 177.354 10.765C177.354 11.2025 176.995 11.5566 176.557 11.5566ZM183.292 6.80664H176.958C175.646 6.80664 174.458 7.33789 173.594 8.19727C172.734 9.05664 172.203 10.2441 172.203 11.5566C172.203 14.1816 174.333 16.3118 176.958 16.3118H183.292C184.604 16.3118 185.792 15.7754 186.651 14.916C187.51 14.0566 188.042 12.8691 188.042 11.5566C188.042 8.93685 185.917 6.80664 183.292 6.80664Z" fill="#F5A711"/>
<path d="M180.125 19.4792H177.75C176.677 19.4792 175.641 19.2708 174.667 18.8542C173.724 18.4583 172.875 17.8854 172.146 17.1563C171.422 16.4323 170.849 15.5833 170.453 14.6406C170.036 13.6667 169.828 12.6302 169.828 11.5573C169.828 10.4896 170.036 9.45313 170.453 8.47917C170.849 7.53125 171.422 6.6875 172.146 5.95833C172.875 5.23437 173.724 4.66146 174.667 4.26042C175.641 3.84896 176.677 3.64062 177.75 3.64062H182.5C183.568 3.64062 184.604 3.84896 185.583 4.26042C186.526 4.66146 187.37 5.23437 188.099 5.95833C188.823 6.6875 189.396 7.53125 189.797 8.47917C190.208 9.45313 190.417 10.4896 190.417 11.5573H189.625C189.625 7.63021 186.427 4.43229 182.5 4.43229H177.75C173.818 4.43229 170.62 7.63021 170.62 11.5573C170.62 15.4896 173.818 18.6875 177.75 18.6875H180.125V19.4792Z" fill="#F5A711"/>
<mask id="mask1_1681_623" style="mask-type:luminance" maskUnits="userSpaceOnUse" x="167" y="7" width="5" height="9">
<path d="M167.449 7.66602H171.668V15.666H167.449V7.66602Z" fill="white"/>
</mask>
<g mask="url(#mask1_1681_623)">
<path d="M170.62 14.7292C168.87 14.7292 167.453 13.3073 167.453 11.5573C167.453 9.80729 168.87 8.39062 170.62 8.39062V14.7292Z" fill="#F5A711"/>
</g>
<path d="M189.625 14.7292C191.375 14.7292 192.792 13.3073 192.792 11.5573C192.792 9.80729 191.375 8.39062 189.625 8.39062V14.7292Z" fill="#F5A711"/>
<path d="M182.103 7.20247C182.103 8.07747 181.217 8.78581 180.124 8.78581C179.03 8.78581 178.145 8.07747 178.145 7.20247C178.145 6.32747 179.03 5.61914 180.124 5.61914C181.217 5.61914 182.103 6.32747 182.103 7.20247Z" fill="#F5A711"/>
<mask id="mask2_1681_623" style="mask-type:luminance" maskUnits="userSpaceOnUse" x="178" y="17" width="6" height="4">
<path d="M178.332 17H183.665V20.8646H178.332V17Z" fill="white"/>
</mask>
<g mask="url(#mask2_1681_623)">
<path d="M182.497 19.0833C182.497 19.9583 181.612 20.6667 180.518 20.6667C179.424 20.6667 178.539 19.9583 178.539 19.0833C178.539 18.2083 179.424 17.5 180.518 17.5C181.612 17.5 182.497 18.2083 182.497 19.0833Z" fill="#F5A711"/>
</g>
<path d="M180.522 8.40625H179.73V1.26562H180.522V8.40625Z" fill="#F5A711"/>
<mask id="mask3_1681_623" style="mask-type:luminance" maskUnits="userSpaceOnUse" x="16" y="38" width="3" height="3">
<path d="M16.7969 38.9121H18.776V40.8913H16.7969V38.9121Z" fill="white"/>
</mask>
<g mask="url(#mask3_1681_623)">
<path d="M17.7865 40.8913C17.2396 40.8913 16.7969 40.4486 16.7969 39.9017C16.7969 39.36 17.2396 38.9121 17.7865 38.9121C18.3333 38.9121 18.776 39.3548 18.776 39.9017C18.776 40.4486 18.3333 40.8913 17.7865 40.8913ZM17.7865 38.9746C17.276 38.9746 16.8594 39.3913 16.8594 39.9017C16.8594 40.4173 17.276 40.834 17.7865 40.834C18.3021 40.834 18.7135 40.4173 18.7135 39.9017C18.7135 39.3913 18.2969 38.9746 17.7865 38.9746Z" fill="black"/>
</g>
</svg>
