<svg width="48" height="48" viewBox="0 0 48 48" fill="none" xmlns="http://www.w3.org/2000/svg">
<path d="M24 2.5C19.7477 2.5 15.5909 3.76095 12.0552 6.1234C8.51959 8.48585 5.76388 11.8437 4.1366 15.7723C2.50932 19.7009 2.08354 24.0239 2.91313 28.1944C3.74271 32.365 5.79038 36.196 8.79721 39.2028C11.804 42.2096 15.635 44.2573 19.8056 45.0869C23.9762 45.9165 28.2991 45.4907 32.2277 43.8634C36.1563 42.2361 39.5142 39.4804 41.8766 35.9448C44.2391 32.4091 45.5 28.2523 45.5 24C45.4974 18.2987 43.2313 12.8316 39.1999 8.80013C35.1684 4.76867 29.7014 2.50265 24 2.5ZM24 13.68L27.59 20.22L34.77 21.73L29.77 27.24L30.59 34.7L24 31.56L17.32 34.66L18.19 27.21L13.19 21.67L20.39 20.21L24 13.68Z" stroke="white" stroke-linecap="round" stroke-linejoin="round"/>
</svg>
