<svg width="18" height="18" viewBox="0 0 18 18" fill="none" xmlns="http://www.w3.org/2000/svg">
<path d="M2 18C1.45 18 0.979333 17.8043 0.588 17.413C0.196667 17.0217 0.000666667 16.5507 0 16V2C0 1.45 0.196 0.979333 0.588 0.588C0.98 0.196667 1.45067 0.000666667 2 0H16C16.55 0 17.021 0.196 17.413 0.588C17.805 0.98 18.0007 1.45067 18 2V16C18 16.55 17.8043 17.021 17.413 17.413C17.0217 17.805 16.5507 18.0007 16 18H2ZM6 9.5L10 13.5L16 7.5V2H2V13.5L6 9.5ZM9 9V3H10.5V9H9ZM12.5 9L10.5 6L12.5 3H14.2L12.2 6L14.2 9H12.5ZM4 9V5.25H6.5V4.5H4V3H8V6.75H5.5V7.5H8V9H4ZM6 12L2 16H16V10L10 16L6 12Z" fill="black"/>
</svg>
